<svg width="22" height="22" viewBox="0 0 22 22" fill="none" xmlns="http://www.w3.org/2000/svg">
<path fill-rule="evenodd" clip-rule="evenodd" d="M15.5854 16.8358H6.41492C5.4937 16.8358 4.74756 16.0896 4.74756 15.1684V5.16424C4.74756 4.24302 5.4937 3.49688 6.41492 3.49688H15.5854C16.5066 3.49688 17.2528 4.24302 17.2528 5.16424V15.1684C17.2528 16.0896 16.5066 16.8358 15.5854 16.8358Z" stroke="#797FA3" stroke-width="1.5" stroke-linecap="round" stroke-linejoin="round"/>
<path d="M7.24854 14.3347H8.08222" stroke="#797FA3" stroke-width="1.5" stroke-linecap="round" stroke-linejoin="round"/>
<path d="M13.918 14.3347H14.7516" stroke="#797FA3" stroke-width="1.5" stroke-linecap="round" stroke-linejoin="round"/>
<path d="M4.74756 11.8337H17.2528" stroke="#797FA3" stroke-width="1.5" stroke-linecap="round" stroke-linejoin="round"/>
<path d="M19.3369 10.1663V7.66528C19.3369 7.20509 18.9635 6.8316 18.5033 6.8316H3.49701C3.03682 6.8316 2.66333 7.20509 2.66333 7.66528V10.1663" stroke="#797FA3" stroke-width="1.5" stroke-linecap="round" stroke-linejoin="round"/>
<path d="M7.86213 16.8358V18.0863C7.86213 18.5465 7.48864 18.92 7.02844 18.92H6.19476C5.73457 18.92 5.36108 18.5465 5.36108 18.0863V16.4556" stroke="#797FA3" stroke-width="1.5" stroke-linecap="round" stroke-linejoin="round"/>
<path d="M16.6392 16.4556V18.0863C16.6392 18.5465 16.2657 18.92 15.8055 18.92H14.9719C14.5117 18.92 14.1382 18.5465 14.1382 18.0863V16.8358" stroke="#797FA3" stroke-width="1.5" stroke-linecap="round" stroke-linejoin="round"/>
</svg>
