<svg width="22" height="22" viewBox="0 0 22 22" fill="none" xmlns="http://www.w3.org/2000/svg">
<path d="M7.24854 12.0421H14.7517" stroke="#797FA3" stroke-width="1.5" stroke-linecap="round" stroke-linejoin="round"/>
<path d="M11.0001 12.0421V7.04001" stroke="#797FA3" stroke-width="1.5" stroke-linecap="round" stroke-linejoin="round"/>
<path d="M13.5011 12.0421V8.70737" stroke="#797FA3" stroke-width="1.5" stroke-linecap="round" stroke-linejoin="round"/>
<path d="M14.3347 18.5031L13.501 15.1684" stroke="#797FA3" stroke-width="1.5" stroke-linecap="round" stroke-linejoin="round"/>
<path d="M7.66528 18.5031L8.49896 15.1684" stroke="#797FA3" stroke-width="1.5" stroke-linecap="round" stroke-linejoin="round"/>
<path fill-rule="evenodd" clip-rule="evenodd" d="M16.7732 15.1684H5.22671C4.27132 15.1684 3.49683 14.3939 3.49683 13.4385V5.22674C3.49683 4.27135 4.27132 3.49686 5.22671 3.49686H16.7724C17.2313 3.49664 17.6715 3.67879 17.9961 4.00323C18.3207 4.32768 18.5031 4.76781 18.5031 5.22674V13.4377C18.5033 13.8966 18.3211 14.3368 17.9967 14.6614C17.6723 14.986 17.2321 15.1684 16.7732 15.1684Z" stroke="#797FA3" stroke-width="1.5" stroke-linecap="round" stroke-linejoin="round"/>
<path d="M8.49887 12.0421V9.54105" stroke="#797FA3" stroke-width="1.5" stroke-linecap="round" stroke-linejoin="round"/>
</svg>
