<svg width="20" height="20" viewBox="0 0 20 20" fill="none" xmlns="http://www.w3.org/2000/svg">
<path d="M17.3107 11.6674C16.5665 14.9322 13.749 17.3088 10.4054 17.4919C7.06181 17.6749 4.00164 15.6202 2.90546 12.4562C1.80928 9.29206 2.94246 5.7846 5.6827 3.85997C8.42294 1.93534 12.1068 2.0595 14.7113 4.16426" stroke="#797FA3" stroke-width="1.5" stroke-linecap="round" stroke-linejoin="round"/>
<path d="M17.5032 6.66693L15.0022 9.16464" stroke="#797FA3" stroke-width="1.5" stroke-linecap="round" stroke-linejoin="round"/>
<path d="M15.0037 6.66528L17.5014 9.16632" stroke="#797FA3" stroke-width="1.5" stroke-linecap="round" stroke-linejoin="round"/>
<path d="M10.0001 9.72408V6.99878" stroke="#797FA3" stroke-width="1.5" stroke-linecap="round" stroke-linejoin="round"/>
<path d="M10 12.7328C9.96433 12.7328 9.93015 12.7471 9.90508 12.7724C9.88002 12.7978 9.86616 12.8322 9.86661 12.8678C9.86794 12.941 9.92689 12.9999 10 13.0012C10.0746 13.0012 10.1351 12.9408 10.1351 12.8662C10.1351 12.7916 10.0746 12.7311 10 12.7311" stroke="#797FA3" stroke-width="1.5" stroke-linecap="round" stroke-linejoin="round"/>
</svg>
