<svg width="20" height="20" viewBox="0 0 20 20" fill="none" xmlns="http://www.w3.org/2000/svg">
<path d="M18.3368 14.1684V11.6674C18.3368 10.976 16.9362 10.4168 15.2105 10.4168C13.4848 10.4168 12.0851 10.9769 12.0842 11.6674V16.6694C12.0851 17.3599 13.4839 17.92 15.2105 17.92C16.9371 17.92 18.3359 17.3599 18.3368 16.6694V11.6674" stroke="#797FA3" stroke-width="1.5" stroke-linecap="round" stroke-linejoin="round"/>
<path d="M6.35693 11.5556L9.40487 9.69736V5.81992" stroke="#797FA3" stroke-width="1.5" stroke-linecap="round" stroke-linejoin="round"/>
<path d="M16.477 7.49895C15.6034 3.67194 11.9268 1.16577 8.04527 1.7513C4.16371 2.33684 1.39008 5.81603 1.68421 9.73047C1.97835 13.6449 5.24078 16.6705 9.16625 16.6694" stroke="#797FA3" stroke-width="1.5" stroke-linecap="round" stroke-linejoin="round"/>
<path d="M12.0852 11.6674C12.0852 12.3578 13.4849 12.9179 15.2115 12.9179C16.9381 12.9179 18.3369 12.3578 18.3369 11.6674" stroke="#797FA3" stroke-width="1.5" stroke-linecap="round" stroke-linejoin="round"/>
<path d="M12.0852 14.1684C12.0852 14.8589 13.4849 15.4189 15.2115 15.4189C16.9381 15.4189 18.3378 14.8589 18.3378 14.1684" stroke="#797FA3" stroke-width="1.5" stroke-linecap="round" stroke-linejoin="round"/>
</svg>
