<svg width="20" height="20" viewBox="0 0 20 20" fill="none" xmlns="http://www.w3.org/2000/svg">
<path d="M15.4635 13.5192L13.8426 15.14L12.8701 14.1675" stroke="#797FA3" stroke-width="1.5" stroke-linecap="round" stroke-linejoin="round"/>
<path d="M7.5 15H5C3.61917 15 2.5 13.8808 2.5 12.5V5C2.5 3.61917 3.61917 2.5 5 2.5H15C16.3808 2.5 17.5 3.61917 17.5 5V8.33333" stroke="#797FA3" stroke-width="1.5" stroke-linecap="round" stroke-linejoin="round"/>
<path d="M5.83325 9.58332H8.33325" stroke="#797FA3" stroke-width="1.5" stroke-linecap="round" stroke-linejoin="round"/>
<path d="M5.83325 5.83332H13.3333" stroke="#797FA3" stroke-width="1.5" stroke-linecap="round" stroke-linejoin="round"/>
<path fill-rule="evenodd" clip-rule="evenodd" d="M10.2291 14.845L10.7825 15.5692L10.9025 16.47C10.9691 16.97 11.3616 17.3633 11.8616 17.43L12.765 17.5508L13.4883 18.1042C13.8883 18.41 14.4441 18.41 14.8441 18.1042L15.5683 17.5508H15.5675L16.4691 17.4308C16.9691 17.3642 17.3625 16.9717 17.4291 16.4717L17.55 15.5683C17.55 15.5692 17.83 15.2025 18.1033 14.845C18.4091 14.445 18.4091 13.8892 18.1033 13.4892L17.55 12.765L17.43 11.8642C17.3633 11.3642 16.9708 10.9708 16.4708 10.9042L15.5675 10.7833L14.8441 10.23C14.4441 9.92415 13.8883 9.92415 13.4883 10.23L12.7641 10.7833H12.765L11.8633 10.9033C11.3633 10.97 10.97 11.3625 10.9033 11.8625L10.7825 12.7658C10.7825 12.765 10.5025 13.1317 10.2291 13.4892C9.9233 13.8892 9.9233 14.4442 10.2291 14.845V14.845Z" stroke="#797FA3" stroke-width="1.5" stroke-linecap="round" stroke-linejoin="round"/>
</svg>
