<svg width="20" height="20" viewBox="0 0 20 20" fill="none" xmlns="http://www.w3.org/2000/svg">
<path fill-rule="evenodd" clip-rule="evenodd" d="M15.8333 18.3333H4.16667C3.24583 18.3333 2.5 17.5875 2.5 16.6667V3.33332C2.5 2.41249 3.24583 1.66666 4.16667 1.66666H15.8333C16.7542 1.66666 17.5 2.41249 17.5 3.33332V16.6667C17.5 17.5875 16.7542 18.3333 15.8333 18.3333Z" stroke="#797FA3" stroke-width="1.5" stroke-linecap="round" stroke-linejoin="round"/>
<path d="M13.3334 12.5H6.66675" stroke="#797FA3" stroke-width="1.5" stroke-linecap="round" stroke-linejoin="round"/>
<path d="M11.6666 15H8.33325" stroke="#797FA3" stroke-width="1.5" stroke-linecap="round" stroke-linejoin="round"/>
<path d="M10.0001 8.88583L11.2534 9.54416C11.4976 9.67249 11.7826 9.46499 11.7359 9.19333L11.4967 7.79749L12.5109 6.80999C12.7084 6.61749 12.5992 6.28249 12.3267 6.24249L10.9251 6.03916L10.2984 4.76833C10.1767 4.52083 9.82342 4.52083 9.70175 4.76833L9.07508 6.03916L7.67342 6.24333C7.40092 6.28249 7.29175 6.61833 7.48925 6.81083L8.50342 7.79833L8.26425 9.19416C8.21758 9.46583 8.50258 9.67333 8.74675 9.54499L10.0001 8.88583" stroke="#797FA3" stroke-width="1.5" stroke-linecap="round" stroke-linejoin="round"/>
</svg>
