<svg width="20" height="20" viewBox="0 0 20 20" fill="none" xmlns="http://www.w3.org/2000/svg">
<path fill-rule="evenodd" clip-rule="evenodd" d="M6.66667 7.5H3.33333C2.87333 7.5 2.5 7.12667 2.5 6.66667V3.33333C2.5 2.87333 2.87333 2.5 3.33333 2.5H6.66667C7.12667 2.5 7.5 2.87333 7.5 3.33333V6.66667C7.5 7.12667 7.12667 7.5 6.66667 7.5Z" stroke="#797FA3" stroke-width="1.5" stroke-linecap="round" stroke-linejoin="round"/>
<path fill-rule="evenodd" clip-rule="evenodd" d="M6.66667 17.5H3.33333C2.87333 17.5 2.5 17.1267 2.5 16.6667V13.3333C2.5 12.8733 2.87333 12.5 3.33333 12.5H6.66667C7.12667 12.5 7.5 12.8733 7.5 13.3333V16.6667C7.5 17.1267 7.12667 17.5 6.66667 17.5Z" stroke="#797FA3" stroke-width="1.5" stroke-linecap="round" stroke-linejoin="round"/>
<path fill-rule="evenodd" clip-rule="evenodd" d="M16.6667 7.5H13.3333C12.8733 7.5 12.5 7.12667 12.5 6.66667V3.33333C12.5 2.87333 12.8733 2.5 13.3333 2.5H16.6667C17.1267 2.5 17.5 2.87333 17.5 3.33333V6.66667C17.5 7.12667 17.1267 7.5 16.6667 7.5Z" stroke="#797FA3" stroke-width="1.5" stroke-linecap="round" stroke-linejoin="round"/>
<path d="M5.83325 10H7.49992" stroke="#797FA3" stroke-width="1.5" stroke-linecap="round" stroke-linejoin="round"/>
<path d="M9.99992 4.16667V2.5" stroke="#797FA3" stroke-width="1.5" stroke-linecap="round" stroke-linejoin="round"/>
<path d="M13.3333 10H10.8333C10.3733 10 10 9.62667 10 9.16667V7.5" stroke="#797FA3" stroke-width="1.5" stroke-linecap="round" stroke-linejoin="round"/>
<path d="M3.33333 10H2.5" stroke="#797FA3" stroke-width="1.5" stroke-linecap="round" stroke-linejoin="round"/>
<path d="M12.5 15H10.8333C10.3733 15 10 15.3733 10 15.8333V17.5" stroke="#797FA3" stroke-width="1.5" stroke-linecap="round" stroke-linejoin="round"/>
<path d="M10 12.5H15" stroke="#797FA3" stroke-width="1.5" stroke-linecap="round" stroke-linejoin="round"/>
<path d="M17.5 12.5V16.6667C17.5 17.1267 17.1267 17.5 16.6667 17.5H12.5" stroke="#797FA3" stroke-width="1.5" stroke-linecap="round" stroke-linejoin="round"/>
<path d="M4.99992 4.99166C4.99742 4.99166 4.99575 4.99333 4.99575 4.99583C4.99575 4.99833 4.99742 5 4.99992 5C5.00242 5 5.00409 4.99833 5.00409 4.99583C5.00409 4.99333 5.00242 4.99166 4.99992 4.99166" stroke="#797FA3" stroke-width="1.5" stroke-linecap="round" stroke-linejoin="round"/>
<path d="M14.9958 4.99583C14.9933 4.99583 14.9916 4.99749 14.9916 4.99999C14.9916 5.00249 14.9933 5.00416 14.9958 5.00416C14.9983 5.00416 14.9999 5.00249 14.9999 4.99999C14.9999 4.99749 14.9983 4.99583 14.9958 4.99583" stroke="#797FA3" stroke-width="1.5" stroke-linecap="round" stroke-linejoin="round"/>
<path d="M15.8293 9.99583C15.8268 9.99583 15.8251 9.9975 15.8251 10C15.8251 10.0025 15.8268 10.0042 15.8293 10.0042C15.8318 10.0042 15.8334 10.0025 15.8334 10C15.8334 9.9975 15.8318 9.99583 15.8293 9.99583" stroke="#797FA3" stroke-width="1.5" stroke-linecap="round" stroke-linejoin="round"/>
<path d="M14.9958 14.9958C14.9933 14.9958 14.9916 14.9975 14.9916 15C14.9916 15.0025 14.9933 15.0042 14.9958 15.0042C14.9983 15.0042 14.9999 15.0025 14.9999 15C14.9999 14.9975 14.9983 14.9958 14.9958 14.9958" stroke="#797FA3" stroke-width="1.5" stroke-linecap="round" stroke-linejoin="round"/>
<path d="M5.00407 14.9958C5.00157 14.9958 4.9999 14.9975 4.9999 15C4.9999 15.0025 5.00157 15.0042 5.00407 15.0042C5.00657 15.0042 5.00824 15.0025 5.00824 15C5.00824 14.9975 5.00657 14.9958 5.00407 14.9958" stroke="#797FA3" stroke-width="1.5" stroke-linecap="round" stroke-linejoin="round"/>
</svg>
