<svg width="20" height="20" viewBox="0 0 20 20" fill="none" xmlns="http://www.w3.org/2000/svg">
<path d="M14.1683 7.49893V5.83157H12.501" stroke="#797FA3" stroke-width="1.5" stroke-linecap="round" stroke-linejoin="round"/>
<path d="M8.33276 7.73737L9.40488 6.66525L11.6675 8.33261L14.1685 5.83157" stroke="#797FA3" stroke-width="1.5" stroke-linecap="round" stroke-linejoin="round"/>
<path d="M11.6675 11.2505L14.1685 11.2506" stroke="#797FA3" stroke-width="1.5" stroke-linecap="round" stroke-linejoin="round"/>
<path d="M11.6675 13.7515L14.1685 13.7516" stroke="#797FA3" stroke-width="1.5" stroke-linecap="round" stroke-linejoin="round"/>
<path d="M2.49683 11.3339V17.0029C2.49778 17.7394 3.98983 18.3368 5.83155 18.3368C7.67327 18.3368 9.16532 17.7394 9.16627 17.0029V11.3339" stroke="#797FA3" stroke-width="1.5" stroke-linecap="round" stroke-linejoin="round"/>
<path d="M9.16532 11.3339C9.16532 12.0704 7.67232 12.6678 5.8306 12.6678C3.98888 12.6678 2.49683 12.0704 2.49683 11.3339C2.49683 10.5964 3.99078 10 5.83155 10C7.67231 10 9.16532 10.5974 9.16627 11.3339" stroke="#797FA3" stroke-width="1.5" stroke-linecap="round" stroke-linejoin="round"/>
<path d="M2.49731 14.1684C2.49731 14.9049 3.98937 15.5023 5.83109 15.5023C7.6728 15.5023 9.16581 14.9049 9.16581 14.1684" stroke="#797FA3" stroke-width="1.5" stroke-linecap="round" stroke-linejoin="round"/>
<path d="M4.16431 7.49894V4.16422C4.16431 3.24336 4.91081 2.49686 5.83167 2.49686H15.8358C16.7567 2.49686 17.5032 3.24336 17.5032 4.16422V15.0021C17.5032 15.9229 16.7567 16.6694 15.8358 16.6694H11.6674" stroke="#797FA3" stroke-width="1.5" stroke-linecap="round" stroke-linejoin="round"/>
</svg>
