<svg width="20" height="20" viewBox="0 0 20 20" fill="none" xmlns="http://www.w3.org/2000/svg">
<path d="M14.5851 17.5031L12.8594 14.9145" stroke="#797FA3" stroke-width="1.5" stroke-linecap="round" stroke-linejoin="round"/>
<path d="M7.14051 14.9145L5.41479 17.5031" stroke="#797FA3" stroke-width="1.5" stroke-linecap="round" stroke-linejoin="round"/>
<path fill-rule="evenodd" clip-rule="evenodd" d="M12.1433 15.0021H7.85649C6.2775 15.0021 4.9978 13.7224 4.9978 12.1434V7.14129C4.9978 5.95746 5.95737 4.99789 7.1412 4.99789H12.8577C14.0424 4.99789 15.002 5.95746 15.002 7.14129V12.1434C15.002 13.7224 13.7223 15.0021 12.1433 15.0021Z" stroke="#797FA3" stroke-width="1.5" stroke-linecap="round" stroke-linejoin="round"/>
<path d="M15.0021 10.0592H5.11719" stroke="#797FA3" stroke-width="1.5" stroke-linecap="round" stroke-linejoin="round"/>
<path d="M11.6672 17.5031H8.33252" stroke="#797FA3" stroke-width="1.5" stroke-linecap="round" stroke-linejoin="round"/>
<path d="M17.5031 17.5031V6.66526C17.5031 4.36347 15.6365 2.49686 13.3347 2.49686H6.66523C4.36344 2.49686 2.49683 4.36347 2.49683 6.66526V17.5031" stroke="#797FA3" stroke-width="1.5" stroke-linecap="round" stroke-linejoin="round"/>
<path d="M12.3343 12.0842C12.2434 12.0842 12.1692 12.1584 12.1701 12.2492C12.1701 12.3401 12.2443 12.4143 12.3351 12.4143C12.426 12.4143 12.501 12.3409 12.501 12.2492C12.501 12.1584 12.4268 12.0842 12.3343 12.0842" stroke="#797FA3" stroke-width="1.5" stroke-linecap="round" stroke-linejoin="round"/>
<path d="M7.66308 12.0842C7.57221 12.0842 7.49801 12.1584 7.49884 12.2492C7.49884 12.3401 7.57304 12.4143 7.66391 12.4143C7.75478 12.4143 7.82898 12.3401 7.82898 12.2492C7.82981 12.1584 7.75562 12.0842 7.66308 12.0842" stroke="#797FA3" stroke-width="1.5" stroke-linecap="round" stroke-linejoin="round"/>
</svg>
