<svg width="22" height="22" viewBox="0 0 22 22" fill="none" xmlns="http://www.w3.org/2000/svg">
<path d="M17.6695 15.1684V16.8357C17.6695 17.757 16.9233 18.5031 16.0021 18.5031H5.99793C5.07671 18.5031 4.33057 17.757 4.33057 16.8357V5.16422C4.33057 4.243 5.07671 3.49686 5.99793 3.49686H16.0021C16.9233 3.49686 17.6695 4.243 17.6695 5.16422V6.83158" stroke="#797FA3" stroke-width="1.5" stroke-linecap="round" stroke-linejoin="round"/>
<path d="M8.49887 10.1663V11.8337" stroke="#797FA3" stroke-width="1.5" stroke-linecap="round" stroke-linejoin="round"/>
<path d="M4.33057 16.8332C4.33057 18.0729 5.63528 18.8791 6.74324 18.3247L10.078 16.6573C10.6432 16.3739 11 15.797 11 15.1651V3.49686" stroke="#797FA3" stroke-width="1.5" stroke-linecap="round" stroke-linejoin="round"/>
<path d="M18.5031 9.78531L16.0737 12.2147" stroke="#797FA3" stroke-width="1.5" stroke-linecap="round" stroke-linejoin="round"/>
<path d="M18.5031 12.2147L16.0737 9.78531" stroke="#797FA3" stroke-width="1.5" stroke-linecap="round" stroke-linejoin="round"/>
</svg>
