    <svg width="20" height="20" viewBox="0 0 20 20" fill="none" xmlns="http://www.w3.org/2000/svg">
<path d="M15 5.83333V4.16667C15 3.24619 14.2538 2.5 13.3333 2.5H6.66667C5.74619 2.5 5 3.24619 5 4.16667V5.83333" stroke="#797FA3" stroke-width="1.5" stroke-linecap="round" stroke-linejoin="round"/>
<path d="M14.9999 10.4167V8.75" stroke="#797FA3" stroke-width="1.5" stroke-linecap="round" stroke-linejoin="round"/>
<path d="M17.4999 11.6667V7.5" stroke="#797FA3" stroke-width="1.5" stroke-linecap="round" stroke-linejoin="round"/>
<path d="M5.00012 8.75L5.0002 10.4167" stroke="#797FA3" stroke-width="1.5" stroke-linecap="round" stroke-linejoin="round"/>
<path d="M2.49992 7.5V11.6667" stroke="#797FA3" stroke-width="1.5" stroke-linecap="round" stroke-linejoin="round"/>
<path d="M8.33325 15H11.6666" stroke="#797FA3" stroke-width="1.5" stroke-linecap="round" stroke-linejoin="round"/>
<path d="M12.0834 2.5V4.16667C12.0834 4.39679 11.8969 4.58333 11.6667 4.58333H8.33341C8.1033 4.58333 7.91675 4.39679 7.91675 4.16667V2.5" stroke="#797FA3" stroke-width="1.5" stroke-linecap="round" stroke-linejoin="round"/>
<path d="M5 13.3333V15.8333C5 16.7538 5.74619 17.5 6.66667 17.5H13.3333C14.2538 17.5 15 16.7538 15 15.8333V13.3333" stroke="#797FA3" stroke-width="1.5" stroke-linecap="round" stroke-linejoin="round"/>
</svg>
