<svg width="85" height="27" viewBox="0 0 85 27" fill="none" xmlns="http://www.w3.org/2000/svg">
<path fill-rule="evenodd" clip-rule="evenodd" d="M23.1994 5.67484H30.1058V25.7251H35.439V5.67484H46.452V25.7251H51.7763V5.67484H58.0605L60.3804 0.817764H23.1994V5.67484Z" fill="white"/>
<path fill-rule="evenodd" clip-rule="evenodd" d="M1.18236 22.8987C2.80898 19.4503 5.86667 16.8159 9.56433 15.8646L12.5331 8.56531L15.4753 15.7915C19.2885 16.6696 22.444 19.2948 24.115 22.8255H24.1417L14.8531 0.817764H10.4443L1.18236 22.8987Z" fill="white"/>
<path fill-rule="evenodd" clip-rule="evenodd" d="M71.8379 20.8407C67.767 20.8407 64.4693 17.4471 64.4693 13.2578C64.4693 9.06841 67.767 5.67486 71.8379 5.67486C75.9089 5.67486 79.2066 9.06841 79.2066 13.2578C79.2066 17.4471 75.9089 20.8407 71.8379 20.8407ZM84.5487 13.2578C84.5487 6.03159 78.8599 0.17749 71.8379 0.17749C64.8159 0.17749 59.1272 6.03159 59.1272 13.2578C59.1272 20.4839 64.8159 26.338 71.8379 26.338C78.8599 26.338 84.5487 20.4839 84.5487 13.2578Z" fill="white"/>
<path fill-rule="evenodd" clip-rule="evenodd" d="M12.5063 15.4622C7.51977 15.5353 3.23546 18.5356 1.19996 22.8713L0.7822 23.8591L0 25.7251H5.87538C6.95979 22.8804 9.51971 21.0327 12.5063 20.9595C12.5685 20.9595 12.9952 20.9595 13.0663 20.9687C15.964 21.1242 18.4261 22.9444 19.4838 25.7251H25.3681L24.577 23.8591L24.1681 22.8713C22.186 18.6453 18.0528 15.6817 13.2351 15.4713C13.1107 15.4622 12.6307 15.4622 12.5063 15.4622Z" fill="white"/>
</svg>
