<svg width="24" height="24" viewBox="0 0 24 24" fill="none" xmlns="http://www.w3.org/2000/svg">
<path fill-rule="evenodd" clip-rule="evenodd" d="M9.74907 19.0029H14.2509C14.389 19.0029 14.501 19.115 14.501 19.253V21.0037C14.501 21.556 14.0529 22.0042 13.5006 22.0042H10.4994C9.94715 22.0042 9.49896 21.556 9.49896 21.0037V19.253C9.49896 19.115 9.61101 19.0029 9.74907 19.0029Z" stroke="#323232" stroke-width="1.5" stroke-linecap="round" stroke-linejoin="round"/>
<path fill-rule="evenodd" clip-rule="evenodd" d="M12 16.0017C13.7686 16.0017 15.2023 12.8664 15.2023 8.99875C15.2023 5.13115 13.7686 1.99583 12 1.99583C10.2314 1.99583 8.79767 5.13115 8.79767 8.99875C8.79767 12.8664 10.2314 16.0017 12 16.0017Z" stroke="#323232" stroke-width="1.5" stroke-linecap="round" stroke-linejoin="round"/>
<path d="M16.3588 16.0017H7.64117" stroke="#323232" stroke-width="1.5" stroke-linecap="round" stroke-linejoin="round"/>
<path d="M10.6424 19.0029L6.14356 14.504C4.93106 13.2915 4.18274 11.6939 4.02768 9.98616V9.98616C3.63752 5.69537 7.01592 1.99583 11.3247 1.99583H12.6763C16.9851 1.99583 20.3635 5.69537 19.9733 9.98616V9.98616C19.8183 11.6929 19.0689 13.2915 17.8574 14.504L13.3576 19.0029" stroke="#323232" stroke-width="1.5" stroke-linecap="round" stroke-linejoin="round"/>
</svg>
