<svg width="24" height="24" viewBox="0 0 24 24" fill="none" xmlns="http://www.w3.org/2000/svg">
<path fill-rule="evenodd" clip-rule="evenodd" d="M7.56816 11.94L9.12881 10.0892L16.0017 7.99833L10.9996 15.0012H8.99875H4.99709L7.56816 11.94Z" stroke="#323232" stroke-width="1.5" stroke-linecap="round" stroke-linejoin="round"/>
<path d="M8.99876 15.0013C9.00328 16.8833 7.69875 18.5154 5.86198 18.9258C4.0252 19.3361 2.15013 18.4143 1.35332 16.7092C0.556515 15.0041 1.05225 12.9744 2.54534 11.8286C4.03842 10.6828 6.12732 10.7291 7.56815 11.94" stroke="#323232" stroke-width="1.5" stroke-linecap="round" stroke-linejoin="round"/>
<circle cx="19.0029" cy="15.0013" r="4.00167" stroke="#323232" stroke-width="1.5" stroke-linecap="round" stroke-linejoin="round"/>
<path d="M16.0017 5.9975L18.0025 4.99708" stroke="#323232" stroke-width="1.5" stroke-linecap="round" stroke-linejoin="round"/>
<path d="M19.0029 15.0012L16.0017 5.9975" stroke="#323232" stroke-width="1.5" stroke-linecap="round" stroke-linejoin="round"/>
<path d="M6.99791 6.99792H9.99916" stroke="#323232" stroke-width="1.5" stroke-linecap="round" stroke-linejoin="round"/>
<path fill-rule="evenodd" clip-rule="evenodd" d="M16.0017 7.99833L10.9996 15.0012H4.99709L9.12881 10.0862L16.0017 7.99833Z" stroke="#323232" stroke-width="1.5" stroke-linecap="round" stroke-linejoin="round"/>
<path d="M10.9996 15.0013L7.99832 6.99792" stroke="#323232" stroke-width="1.5" stroke-linecap="round" stroke-linejoin="round"/>
</svg>
