<svg width="24" height="24" viewBox="0 0 24 24" fill="none" xmlns="http://www.w3.org/2000/svg">
<path d="M8.99876 15.0012C8.99876 17.2113 7.20715 19.0029 4.99709 19.0029C2.78703 19.0029 0.995422 17.2113 0.995422 15.0012C0.995422 12.7912 2.78703 10.9996 4.99709 10.9996C5.69261 10.9982 6.37607 11.1812 6.97791 11.5298" stroke="#323232" stroke-width="1.5" stroke-linecap="round" stroke-linejoin="round"/>
<circle cx="19.0029" cy="15.0013" r="4.00167" stroke="#323232" stroke-width="1.5" stroke-linecap="round" stroke-linejoin="round"/>
<path d="M19.253 8.49855C19.5847 8.49855 19.9028 8.3668 20.1373 8.13228C20.3718 7.89776 20.5035 7.57968 20.5035 7.24803V7.24803C20.5035 6.91637 20.3718 6.59829 20.1373 6.36377C19.9028 6.12926 19.5847 5.99751 19.253 5.99751H16.0017L19.0029 15.0013" stroke="#323232" stroke-width="1.5" stroke-linecap="round" stroke-linejoin="round"/>
<path fill-rule="evenodd" clip-rule="evenodd" d="M4.99709 15.0013H10.9996L16.0017 7.99834H8.99875L4.99709 15.0013Z" stroke="#323232" stroke-width="1.5" stroke-linecap="round" stroke-linejoin="round"/>
<path d="M6.99792 5.49729H9.99917" stroke="#323232" stroke-width="1.5" stroke-linecap="round" stroke-linejoin="round"/>
<path d="M10.9996 15.0013L7.99834 5.49729" stroke="#323232" stroke-width="1.5" stroke-linecap="round" stroke-linejoin="round"/>
</svg>
