<svg width="24" height="24" viewBox="0 0 24 24" fill="none" xmlns="http://www.w3.org/2000/svg">
<path d="M7.49811 13.2505H16.5019" stroke="#323232" stroke-width="1.5" stroke-linecap="round" stroke-linejoin="round"/>
<path d="M12 13.2505V7.24802" stroke="#323232" stroke-width="1.5" stroke-linecap="round" stroke-linejoin="round"/>
<path d="M15.0012 13.2505V9.24886" stroke="#323232" stroke-width="1.5" stroke-linecap="round" stroke-linejoin="round"/>
<path d="M16.0017 21.0037L15.0013 17.0021" stroke="#323232" stroke-width="1.5" stroke-linecap="round" stroke-linejoin="round"/>
<path d="M7.99832 21.0037L8.99874 17.0021" stroke="#323232" stroke-width="1.5" stroke-linecap="round" stroke-linejoin="round"/>
<path fill-rule="evenodd" clip-rule="evenodd" d="M18.9279 17.0021H5.07211C3.92564 17.0021 2.99625 16.0727 2.99625 14.9262V5.07211C2.99625 3.92564 3.92564 2.99625 5.07211 2.99625H18.9269C19.4776 2.99598 20.0059 3.21457 20.3954 3.6039C20.7849 3.99323 21.0037 4.52138 21.0037 5.07211V14.9252C21.004 15.4759 20.7854 16.0042 20.3961 16.3937C20.0068 16.7832 19.4786 17.0021 18.9279 17.0021Z" stroke="#323232" stroke-width="1.5" stroke-linecap="round" stroke-linejoin="round"/>
<path d="M8.99874 13.2505V10.2493" stroke="#323232" stroke-width="1.5" stroke-linecap="round" stroke-linejoin="round"/>
</svg>
