<svg width="24" height="24" viewBox="0 0 24 24" fill="none" xmlns="http://www.w3.org/2000/svg">
<path d="M9.23584 6.86386V4.45786C9.23584 3.97066 9.631 3.57549 10.1182 3.57549H13.8818C14.369 3.57549 14.7641 3.97066 14.7641 4.45786V6.86386" stroke="#323232" stroke-width="1.5" stroke-linecap="round" stroke-linejoin="round"/>
<path d="M6.47169 11.3817V8.6306C6.47169 7.65519 7.26202 6.86486 8.23743 6.86486H15.7636C16.739 6.86486 17.5293 7.65519 17.5293 8.6306V11.3817" stroke="#323232" stroke-width="1.5" stroke-linecap="round" stroke-linejoin="round"/>
<path d="M12 1.99583V3.57549" stroke="#323232" stroke-width="1.5" stroke-linecap="round" stroke-linejoin="round"/>
<path d="M16.6869 17.6333L18.0025 15.0013L20.0033 12L12 9.99917L3.99666 12L5.99749 15.0013L6.87686 17.4923" stroke="#323232" stroke-width="1.5" stroke-linecap="round" stroke-linejoin="round"/>
<path d="M2.99625 17.4022C4.0967 16.902 5.49729 16.902 6.59775 17.4022C7.6982 17.9025 9.09879 17.9025 10.1992 17.4022C11.2997 16.902 12.7003 16.902 13.8007 17.4022C14.9012 17.9025 16.3018 17.9025 17.4022 17.4022C18.5027 16.902 19.9033 16.902 21.0037 17.4022" stroke="#323232" stroke-width="1.5" stroke-linecap="round" stroke-linejoin="round"/>
<path d="M6.59775 20.6286C7.69821 21.1288 9.09879 21.1288 10.1992 20.6286C11.2997 20.1284 12.7003 20.1284 13.8007 20.6286C14.9012 21.1288 16.3018 21.1288 17.4022 20.6286" stroke="#323232" stroke-width="1.5" stroke-linecap="round" stroke-linejoin="round"/>
</svg>
