<svg width="24" height="24" viewBox="0 0 24 24" fill="none" xmlns="http://www.w3.org/2000/svg">
<path d="M2.99625 18.6278C4.0967 18.1276 5.49729 18.1276 6.59775 18.6278C7.6982 19.128 9.09879 19.128 10.1992 18.6278C11.2997 18.1276 12.7003 18.1276 13.8007 18.6278C14.9012 19.128 16.3018 19.128 17.4022 18.6278C18.5027 18.1276 19.9033 18.1276 21.0037 18.6278" stroke="#323232" stroke-width="1.5" stroke-linecap="round" stroke-linejoin="round"/>
<path d="M6.59775 21.629C7.69821 22.1292 9.09879 22.1292 10.1992 21.629C11.2997 21.1288 12.7003 21.1288 13.8007 21.629C14.9012 22.1292 16.3018 22.1292 17.4022 21.629" stroke="#323232" stroke-width="1.5" stroke-linecap="round" stroke-linejoin="round"/>
<path fill-rule="evenodd" clip-rule="evenodd" d="M14.0008 12V3.73756C14.0008 2.87721 15.1173 2.53906 15.5945 3.25536L20.5225 10.6484C20.9087 11.2257 20.4945 12 19.7992 12H14.0008Z" stroke="#323232" stroke-width="1.5" stroke-linecap="round" stroke-linejoin="round"/>
<path d="M10.9996 15.0013V2.95023C10.9996 2.00784 9.77708 1.63769 9.25386 2.42201L3.85661 10.5184C3.43444 11.1516 3.88762 12 4.64894 12H10.9996" stroke="#323232" stroke-width="1.5" stroke-linecap="round" stroke-linejoin="round"/>
<path d="M19.9033 18.3026L21.0037 15.0013H3.74655L5.39124 18.2916" stroke="#323232" stroke-width="1.5" stroke-linecap="round" stroke-linejoin="round"/>
</svg>
