<svg width="24" height="24" viewBox="0 0 24 24" fill="none" xmlns="http://www.w3.org/2000/svg">
<path d="M16.0017 4.99708H4.99709" stroke="#323232" stroke-width="1.5" stroke-linecap="round" stroke-linejoin="round"/>
<path d="M16.0017 18.5027H6.16556" stroke="#323232" stroke-width="1.5" stroke-linecap="round" stroke-linejoin="round"/>
<path d="M14.0008 9.99917V4.99708" stroke="#323232" stroke-width="1.5" stroke-linecap="round" stroke-linejoin="round"/>
<path d="M18.7028 17.2981C19.156 17.7513 19.2916 18.4329 19.0464 19.025C18.8011 19.6172 18.2233 20.0033 17.5824 20.0033C16.9415 20.0033 16.3636 19.6173 16.1183 19.0252C15.873 18.433 16.0086 17.7514 16.4617 17.2982L16.4619 17.2981C17.0807 16.6793 18.084 16.6793 18.7028 17.2981V17.2981" stroke="#323232" stroke-width="1.5" stroke-linecap="round" stroke-linejoin="round"/>
<path d="M5.70137 17.2981C6.15461 17.7513 6.29022 18.4329 6.04497 19.025C5.79973 19.6172 5.22192 20.0033 4.58098 20.0033C3.94005 20.0033 3.36221 19.6173 3.1169 19.0252C2.8716 18.433 3.00714 17.7514 3.46033 17.2982L3.46065 17.2979C3.7578 17.0007 4.16082 16.8338 4.58105 16.8339C5.00128 16.8339 5.40428 17.0009 5.70137 17.2981V17.2981" stroke="#323232" stroke-width="1.5" stroke-linecap="round" stroke-linejoin="round"/>
<path d="M6.99792 4.99708V9.99917" stroke="#323232" stroke-width="1.5" stroke-linecap="round" stroke-linejoin="round"/>
<path d="M22.0042 12H18.0025L16.5877 10.5852C16.2125 10.21 15.7035 9.99917 15.1729 9.99917H2.99625" stroke="#323232" stroke-width="1.5" stroke-linecap="round" stroke-linejoin="round"/>
<path d="M19.172 18.5027H20.5035C21.3323 18.5027 22.0042 17.8309 22.0042 17.0021V8.99875C22.0042 6.78869 20.2126 4.99708 18.0025 4.99708H2.99625" stroke="#323232" stroke-width="1.5" stroke-linecap="round" stroke-linejoin="round"/>
</svg>
