<svg width="24" height="24" viewBox="0 0 24 24" fill="none" xmlns="http://www.w3.org/2000/svg">
<path d="M6.97617 18.481H15.5015" stroke="#323232" stroke-width="1.5" stroke-linecap="round" stroke-linejoin="round"/>
<circle cx="17.0021" cy="18.5027" r="1.50063" stroke="#323232" stroke-width="1.5" stroke-linecap="round" stroke-linejoin="round"/>
<circle cx="5.47554" cy="18.5027" r="1.50063" stroke="#323232" stroke-width="1.5" stroke-linecap="round" stroke-linejoin="round"/>
<path d="M1.99583 12H21.7929" stroke="#323232" stroke-width="1.5" stroke-linecap="round" stroke-linejoin="round"/>
<path d="M15.0012 12V5.99751" stroke="#323232" stroke-width="1.5" stroke-linecap="round" stroke-linejoin="round"/>
<path d="M7.99833 12V5.99751" stroke="#323232" stroke-width="1.5" stroke-linecap="round" stroke-linejoin="round"/>
<path d="M22.0042 15.0013H20.0033" stroke="#323232" stroke-width="1.5" stroke-linecap="round" stroke-linejoin="round"/>
<path d="M3.97492 18.5027H2.86577C2.38532 18.5027 1.99583 18.1132 1.99583 17.6328V7.73736C1.99583 6.77647 2.7748 5.99751 3.73569 5.99751H17.7802C19.1009 5.99751 20.2663 6.86081 20.6512 8.12415L21.8739 12.1378C21.9603 12.4213 22.0042 12.7161 22.0042 13.0124V16.4801C22.0042 17.5851 21.1084 18.4809 20.0033 18.4809H18.5027" stroke="#323232" stroke-width="1.5" stroke-linecap="round" stroke-linejoin="round"/>
</svg>
