<svg width="24" height="24" viewBox="0 0 24 24" fill="none" xmlns="http://www.w3.org/2000/svg">
<path fill-rule="evenodd" clip-rule="evenodd" d="M17.5023 19.0029H6.49771C5.39225 19.0029 4.49687 18.1075 4.49687 17.0021V4.99709C4.49687 3.89163 5.39225 2.99625 6.49771 2.99625H17.5023C18.6078 2.99625 19.5031 3.89163 19.5031 4.99709V17.0021C19.5031 18.1075 18.6078 19.0029 17.5023 19.0029Z" stroke="#323232" stroke-width="1.5" stroke-linecap="round" stroke-linejoin="round"/>
<path d="M7.49812 16.0017H8.49854" stroke="#323232" stroke-width="1.5" stroke-linecap="round" stroke-linejoin="round"/>
<path d="M15.5015 16.0017H16.5019" stroke="#323232" stroke-width="1.5" stroke-linecap="round" stroke-linejoin="round"/>
<path d="M4.49687 13.0004H19.5031" stroke="#323232" stroke-width="1.5" stroke-linecap="round" stroke-linejoin="round"/>
<path d="M22.0042 10.9996V7.99833C22.0042 7.4461 21.556 6.99792 21.0037 6.99792H2.99625C2.44402 6.99792 1.99583 7.4461 1.99583 7.99833V10.9996" stroke="#323232" stroke-width="1.5" stroke-linecap="round" stroke-linejoin="round"/>
<path d="M8.23443 19.0029V20.5035C8.23443 21.0558 7.78624 21.504 7.23401 21.504H6.2336C5.68137 21.504 5.23318 21.0558 5.23318 20.5035V18.5467" stroke="#323232" stroke-width="1.5" stroke-linecap="round" stroke-linejoin="round"/>
<path d="M18.7668 18.5467V20.5035C18.7668 21.0558 18.3186 21.504 17.7664 21.504H16.766C16.2138 21.504 15.7656 21.0558 15.7656 20.5035V19.0029" stroke="#323232" stroke-width="1.5" stroke-linecap="round" stroke-linejoin="round"/>
</svg>
