<svg width="24" height="24" viewBox="0 0 24 24" fill="none" xmlns="http://www.w3.org/2000/svg">
<path fill-rule="evenodd" clip-rule="evenodd" d="M17.5023 19.0029H6.49771C5.39225 19.0029 4.49688 18.1075 4.49688 17.0021V5.9975C4.49688 4.33981 5.84044 2.99625 7.49813 2.99625H16.5019C18.1596 2.99625 19.5031 4.33981 19.5031 5.9975V17.0021C19.5031 18.1075 18.6078 19.0029 17.5023 19.0029Z" stroke="#323232" stroke-width="1.5" stroke-linecap="round" stroke-linejoin="round"/>
<path d="M7.49812 16.0017H8.49854" stroke="#323232" stroke-width="1.5" stroke-linecap="round" stroke-linejoin="round"/>
<path d="M15.5015 16.0017H16.5019" stroke="#323232" stroke-width="1.5" stroke-linecap="round" stroke-linejoin="round"/>
<path d="M8.23443 19.0029V20.5035C8.23443 21.0558 7.78625 21.504 7.23402 21.504H6.2336C5.68137 21.504 5.23318 21.0558 5.23318 20.5035V18.5467" stroke="#323232" stroke-width="1.5" stroke-linecap="round" stroke-linejoin="round"/>
<path d="M18.7668 18.5467V20.5035C18.7668 21.0558 18.3186 21.504 17.7664 21.504H16.766C16.2138 21.504 15.7656 21.0558 15.7656 20.5035V19.0029" stroke="#323232" stroke-width="1.5" stroke-linecap="round" stroke-linejoin="round"/>
<path d="M19.5031 6.99792H21.0038C21.556 6.99792 22.0042 7.4461 22.0042 7.99833V10.9996" stroke="#323232" stroke-width="1.5" stroke-linecap="round" stroke-linejoin="round"/>
<path d="M4.49688 6.99792H2.99625C2.44402 6.99792 1.99583 7.4461 1.99583 7.99833V10.9996" stroke="#323232" stroke-width="1.5" stroke-linecap="round" stroke-linejoin="round"/>
<path d="M18.3576 3.64152L16.5879 5.41126C16.2128 5.78641 15.7035 5.9975 15.1733 5.9975H8.82668C8.29646 5.9975 7.78724 5.78641 7.41209 5.41126L5.64035 3.63952" stroke="#323232" stroke-width="1.5" stroke-linecap="round" stroke-linejoin="round"/>
<path d="M19.5031 13.0004H4.49688" stroke="#323232" stroke-width="1.5" stroke-linecap="round" stroke-linejoin="round"/>
</svg>
