<svg width="24" height="24" viewBox="0 0 24 24" fill="none" xmlns="http://www.w3.org/2000/svg">
<path fill-rule="evenodd" clip-rule="evenodd" d="M17.0021 21.0038H6.99792C4.788 21.0038 2.99625 19.212 2.99625 17.0021V14.0008C2.99625 11.7909 4.788 9.99917 6.99792 9.99917H17.0021C19.212 9.99917 21.0038 11.7909 21.0038 14.0008V17.0021C21.0038 19.212 19.212 21.0038 17.0021 21.0038Z" stroke="#323232" stroke-width="1.5" stroke-linecap="round" stroke-linejoin="round"/>
<path d="M21.0038 16.0017H2.99625" stroke="#323232" stroke-width="1.5" stroke-linecap="round" stroke-linejoin="round"/>
<path fill-rule="evenodd" clip-rule="evenodd" d="M12.5002 6.99792H11.4998C10.3943 6.99792 9.49896 7.89329 9.49896 8.99875V9.99917H14.501V8.99875C14.501 7.89329 13.6057 6.99792 12.5002 6.99792Z" stroke="#323232" stroke-width="1.5" stroke-linecap="round" stroke-linejoin="round"/>
<path d="M12 6.99792V4.49688" stroke="#323232" stroke-width="1.5" stroke-linecap="round" stroke-linejoin="round"/>
<path d="M2.99625 5.9975L21.0038 2.99625" stroke="#323232" stroke-width="1.5" stroke-linecap="round" stroke-linejoin="round"/>
<path d="M12 9.99917V16.0017" stroke="#323232" stroke-width="1.5" stroke-linecap="round" stroke-linejoin="round"/>
</svg>
