<svg width="24" height="24" viewBox="0 0 24 24" fill="none" xmlns="http://www.w3.org/2000/svg">
<path d="M15.7721 19.0029H8.38013" stroke="#323232" stroke-width="1.5" stroke-linecap="round" stroke-linejoin="round"/>
<circle cx="17.3503" cy="18.2526" r="1.75073" stroke="#323232" stroke-width="1.5" stroke-linecap="round" stroke-linejoin="round"/>
<circle cx="6.62942" cy="18.2526" r="1.75073" stroke="#323232" stroke-width="1.5" stroke-linecap="round" stroke-linejoin="round"/>
<path d="M18.9292 19.0028H20.1662C20.9058 19.002 21.5341 18.4615 21.6453 17.7304L21.9806 15.5445C22.1438 14.5223 21.4987 13.5448 20.4947 13.2927C18.9941 12.9359 17.4531 12.7778 15.9112 12.8225C15.0138 12.0375 14.0208 11.3691 12.9557 10.833C10.739 9.72126 8.12751 9.72126 5.91078 10.833L3.65885 11.9621C3.34158 12.1193 3.01222 12.2507 2.67393 12.3551C2.26638 12.4885 1.99207 12.8703 1.9958 13.2991V17.5023C1.99528 17.8997 2.15264 18.2811 2.43329 18.5625C2.71393 18.844 3.09488 19.0024 3.49232 19.0029H5.05038" stroke="#323232" stroke-width="1.5" stroke-linecap="round" stroke-linejoin="round"/>
</svg>
