<svg width="24" height="24" viewBox="0 0 24 24" fill="none" xmlns="http://www.w3.org/2000/svg">
<path d="M21.0037 18.5027V20.0033C21.0037 20.5556 20.5556 21.0038 20.0033 21.0038H18.0025C17.4503 21.0038 17.0021 20.5556 17.0021 20.0033V18.5027" stroke="#323232" stroke-width="1.5" stroke-linecap="round" stroke-linejoin="round"/>
<path d="M6.99791 18.5027V20.0033C6.99791 20.5556 6.54973 21.0038 5.9975 21.0038H3.99666C3.44443 21.0038 2.99625 20.5556 2.99625 20.0033V18.5027" stroke="#323232" stroke-width="1.5" stroke-linecap="round" stroke-linejoin="round"/>
<path fill-rule="evenodd" clip-rule="evenodd" d="M2.99625 18.5027V13.7437C2.99625 12.9474 3.31238 12.1841 3.87561 11.6218L4.99708 10.4994H19.0029L20.1244 11.6208C20.6876 12.1841 21.0037 12.9474 21.0037 13.7437V18.5027H2.99625Z" stroke="#323232" stroke-width="1.5" stroke-linecap="round" stroke-linejoin="round"/>
<path d="M21.0038 14.501L18.0025 14.7511" stroke="#323232" stroke-width="1.5" stroke-linecap="round" stroke-linejoin="round"/>
<path d="M5.9975 14.7511L2.99625 14.501" stroke="#323232" stroke-width="1.5" stroke-linecap="round" stroke-linejoin="round"/>
<path d="M7.99834 18.5027L8.99875 15.5015H15.0013L16.0017 18.5027" stroke="#323232" stroke-width="1.5" stroke-linecap="round" stroke-linejoin="round"/>
<path d="M21.0037 9.49896L19.0029 9.99917" stroke="#323232" stroke-width="1.5" stroke-linecap="round" stroke-linejoin="round"/>
<path d="M4.99708 9.99917L2.99625 9.49896" stroke="#323232" stroke-width="1.5" stroke-linecap="round" stroke-linejoin="round"/>
<path d="M4.99709 10.4994V9.99317L5.83343 6.85486C6.12456 5.7594 7.11697 4.99709 8.24944 4.99709H15.8366C16.9941 4.99709 18.0005 5.79142 18.2696 6.91789L19.0029 9.99317V10.4994" stroke="#323232" stroke-width="1.5" stroke-linecap="round" stroke-linejoin="round"/>
</svg>
