<svg width="24" height="24" viewBox="0 0 24 24" fill="none" xmlns="http://www.w3.org/2000/svg">
<path fill-rule="evenodd" clip-rule="evenodd" d="M13.0004 2.99625C6.88971 2.99625 1.99583 5.9975 1.99583 8.99875C1.99583 12 6.88971 15.0013 13.0004 15.0013C17.973 15.0013 22.0042 12.3138 22.0042 8.99875C22.0042 5.68366 17.973 2.99625 13.0004 2.99625Z" stroke="#323232" stroke-width="1.5" stroke-linecap="round" stroke-linejoin="round"/>
<path fill-rule="evenodd" clip-rule="evenodd" d="M15.2523 21.0038H9.74805C9.13993 21.0038 8.59017 20.6418 8.3499 20.0831L8.17704 19.6812C7.97675 19.2155 8.02145 18.6807 8.29627 18.2547V18.2547C8.57654 17.8203 9.05819 17.5579 9.57519 17.5579H15.4252C15.9422 17.5579 16.4238 17.8203 16.7041 18.2547V18.2547C16.9789 18.6807 17.0236 19.2155 16.8233 19.6812L16.6505 20.0831C16.4102 20.6417 15.8605 21.0038 15.2523 21.0038V21.0038Z" stroke="#323232" stroke-width="1.5" stroke-linecap="round" stroke-linejoin="round"/>
<path d="M2.86956 11.2196L2.04793 13.6845C1.94624 13.9896 1.9974 14.3249 2.18543 14.5858C2.37346 14.8467 2.67543 15.0013 2.99701 15.0013H4.99238C5.37131 15.0013 5.71772 14.7872 5.88718 14.4482L6.27973 13.6631" stroke="#323232" stroke-width="1.5" stroke-linecap="round" stroke-linejoin="round"/>
<path d="M2.86956 6.77792L2.04793 4.31303C1.94624 4.00796 1.9974 3.67259 2.18543 3.41171C2.37346 3.15084 2.67543 2.99625 2.99701 2.99625H4.99238C5.37131 2.99625 5.71772 3.21035 5.88718 3.54927L6.27973 4.33436" stroke="#323232" stroke-width="1.5" stroke-linecap="round" stroke-linejoin="round"/>
<path d="M16.1617 14.6111L15.0013 17.5623" stroke="#323232" stroke-width="1.5" stroke-linecap="round" stroke-linejoin="round"/>
<path d="M9.99916 17.5623L8.79866 14.501" stroke="#323232" stroke-width="1.5" stroke-linecap="round" stroke-linejoin="round"/>
</svg>
