<svg width="24" height="24" viewBox="0 0 24 24" fill="none" xmlns="http://www.w3.org/2000/svg">
<path fill-rule="evenodd" clip-rule="evenodd" d="M13.0004 19.0029H10.9996C8.23743 19.0029 5.9975 16.763 5.9975 14.0008V12C5.9975 8.68462 8.68462 5.99751 12 5.99751V5.99751C15.3154 5.99751 18.0025 8.68462 18.0025 12V14.0008C18.0025 16.763 15.7626 19.0029 13.0004 19.0029Z" stroke="#323232" stroke-width="1.5" stroke-linecap="round" stroke-linejoin="round"/>
<path d="M17.9465 14.7511H6.05452" stroke="#323232" stroke-width="1.5" stroke-linecap="round" stroke-linejoin="round"/>
<path d="M18.0025 21.0037L17.2622 19.8943C16.891 19.3371 16.2668 19.0029 15.5975 19.0029H8.4025C7.73322 19.0029 7.10896 19.3371 6.73781 19.8943L5.9975 21.0037" stroke="#323232" stroke-width="1.5" stroke-linecap="round" stroke-linejoin="round"/>
<path d="M1.49562 4.99709C7.29704 2.32897 16.703 2.32897 22.5044 4.99709" stroke="#323232" stroke-width="1.5" stroke-linecap="round" stroke-linejoin="round"/>
<path d="M12 14.7141V2.99625" stroke="#323232" stroke-width="1.5" stroke-linecap="round" stroke-linejoin="round"/>
</svg>
