<svg width="24" height="24" viewBox="0 0 24 24" fill="none" xmlns="http://www.w3.org/2000/svg">
<path d="M13.0004 3.99667V6.99792" stroke="#323232" stroke-width="1.5" stroke-linecap="round" stroke-linejoin="round"/>
<path d="M23.0046 3.99677L0.995415 3.99667" stroke="#323232" stroke-width="1.5" stroke-linecap="round" stroke-linejoin="round"/>
<path d="M15.0012 7.99833V10.1992C15.0012 11.7463 16.2554 13.0004 17.8024 13.0004H21.8264" stroke="#323232" stroke-width="1.5" stroke-linecap="round" stroke-linejoin="round"/>
<path d="M14.0008 17.0021L13.0004 20.0033" stroke="#323232" stroke-width="1.5" stroke-linecap="round" stroke-linejoin="round"/>
<path d="M18.0025 17.0021L19.0029 20.0033" stroke="#323232" stroke-width="1.5" stroke-linecap="round" stroke-linejoin="round"/>
<path d="M22.0042 19.0029L20.4258 19.7921C20.148 19.931 19.8416 20.0033 19.531 20.0033H9.99916" stroke="#323232" stroke-width="1.5" stroke-linecap="round" stroke-linejoin="round"/>
<path d="M15.0012 10.1993V7.99833C15.0012 7.44582 14.5533 6.99792 14.0008 6.99792H12.2362C11.4783 6.99792 10.7855 7.4261 10.4466 8.10395L9.99917 8.99875H6.79324L5.51445 7.37845C5.32478 7.13813 5.0355 6.99792 4.72936 6.99792H2.99784C2.63581 6.99792 2.30203 7.19349 2.12507 7.50932C1.9481 7.82514 1.95558 8.21193 2.1446 8.52069L4.74078 12.7614C4.83168 12.9099 4.99327 13.0004 5.16738 13.0004H9.99917L11.1705 15.343C11.6789 16.3598 12.7181 17.0021 13.8549 17.0021H19.5031C20.8844 17.0021 22.0042 15.8823 22.0042 14.501V14.501C22.0042 12.7764 21.3191 11.1224 20.0996 9.90293C18.8801 8.68344 17.2261 7.99833 15.5015 7.99833H15.0012" stroke="#323232" stroke-width="1.5" stroke-linecap="round" stroke-linejoin="round"/>
</svg>
