<svg width="24" height="24" viewBox="0 0 24 24" fill="none" xmlns="http://www.w3.org/2000/svg">
<path d="M9.99917 13.0004L6.42515 19.255C6.33669 19.4098 6.33732 19.6 6.42682 19.7542C6.51632 19.9084 6.68114 20.0033 6.85945 20.0033H8.54479C8.83328 20.0033 9.10772 19.8788 9.29769 19.6617L15.1263 13.0004" stroke="#323232" stroke-width="1.5" stroke-linecap="round" stroke-linejoin="round"/>
<path d="M8.85584 15.0013H6.66445C5.58215 15.0013 4.52904 14.6502 3.6632 14.0008L0.995422 12L1.99584 10.9996L0.995422 6.99792H3.99667L5.99751 9.99917H20.0033C21.6609 9.99917 23.0046 11.3429 23.0046 13.0004V13.0004C23.0046 14.1054 22.1088 15.0013 21.0038 15.0013H13.3756" stroke="#323232" stroke-width="1.5" stroke-linecap="round" stroke-linejoin="round"/>
<path d="M15.1263 9.99917L10.1731 4.33836C9.9831 4.12122 9.70864 3.99667 9.42013 3.99667H7.7348C7.5565 3.99667 7.39169 4.09161 7.30221 4.24582C7.21272 4.40003 7.21208 4.59022 7.30054 4.74503L10.3029 9.99917" stroke="#323232" stroke-width="1.5" stroke-linecap="round" stroke-linejoin="round"/>
</svg>
