<svg width="24" height="24" viewBox="0 0 24 24" fill="none" xmlns="http://www.w3.org/2000/svg">
<path d="M20.0033 10.9996L18.1446 11.9" stroke="#323232" stroke-width="1.5" stroke-linecap="round" stroke-linejoin="round"/>
<path d="M5.86445 11.9L3.99667 10.9996" stroke="#323232" stroke-width="1.5" stroke-linecap="round" stroke-linejoin="round"/>
<path d="M18.1436 11.9L17.3883 8.28846C17.1702 7.24502 16.2498 6.49771 15.1843 6.49771H8.90972C7.86428 6.49771 6.95591 7.21801 6.71781 8.23644L5.86145 11.9" stroke="#323232" stroke-width="1.5" stroke-linecap="round" stroke-linejoin="round"/>
<path d="M15.2244 6.49771L14.8752 4.82601C14.7732 4.34281 14.348 3.99667 13.8538 3.99667H10.1863C9.70305 3.99667 9.28288 4.3298 9.17183 4.801L8.77567 6.49771" stroke="#323232" stroke-width="1.5" stroke-linecap="round" stroke-linejoin="round"/>
<path d="M12 6.49771V3.99667" stroke="#323232" stroke-width="1.5" stroke-linecap="round" stroke-linejoin="round"/>
<path d="M7.99834 18.2806V20.0033C7.99834 20.5556 7.55015 21.0038 6.99792 21.0038H4.99709C4.44486 21.0038 3.99667 20.5556 3.99667 20.0033V17.6003" stroke="#323232" stroke-width="1.5" stroke-linecap="round" stroke-linejoin="round"/>
<path d="M20.0033 17.6003V20.0033C20.0033 20.5556 19.5551 21.0038 19.0029 21.0038H17.0021C16.4498 21.0038 16.0017 20.5556 16.0017 20.0033V18.2806" stroke="#323232" stroke-width="1.5" stroke-linecap="round" stroke-linejoin="round"/>
<path fill-rule="evenodd" clip-rule="evenodd" d="M20.5035 16.2798V14.6011C20.5035 13.1095 19.294 11.9 17.8024 11.9H6.19758C4.70596 11.9 3.49646 13.1095 3.49646 14.6011V16.2798C3.49646 17.3852 4.39183 18.2806 5.49729 18.2806H18.5027C19.6082 18.2806 20.5035 17.3842 20.5035 16.2798Z" stroke="#323232" stroke-width="1.5" stroke-linecap="round" stroke-linejoin="round"/>
<path d="M6.33064 14.8622L7.99834 15.1123" stroke="#323232" stroke-width="1.5" stroke-linecap="round" stroke-linejoin="round"/>
<path d="M16.0767 15.1123L17.6694 14.8622" stroke="#323232" stroke-width="1.5" stroke-linecap="round" stroke-linejoin="round"/>
</svg>
