<svg width="24" height="24" viewBox="0 0 24 24" fill="none" xmlns="http://www.w3.org/2000/svg">
<path fill-rule="evenodd" clip-rule="evenodd" d="M10.9996 6.99792H6.99791V4.49687C6.99791 4.22062 7.22186 3.99667 7.49812 3.99667H9.63863C9.85393 3.99667 10.0451 4.13444 10.1132 4.3387L10.9996 6.99792Z" stroke="#323232" stroke-width="1.5" stroke-linecap="round" stroke-linejoin="round"/>
<path d="M2.99625 17.0021V17.0021C4.14464 16.5019 5.44935 16.5019 6.59775 17.0021V17.0021C7.74614 17.5023 9.05085 17.5023 10.1992 17.0021V17.0021C11.3476 16.5019 12.6524 16.5019 13.8007 17.0021V17.0021C14.9491 17.5023 16.2539 17.5023 17.4022 17.0021V17.0021C18.5506 16.5019 19.8554 16.5019 21.0037 17.0021V17.0021" stroke="#323232" stroke-width="1.5" stroke-linecap="round" stroke-linejoin="round"/>
<path d="M6.59775 20.0033V20.0033C7.74614 20.5035 9.05085 20.5035 10.1992 20.0033V20.0033C11.3476 19.5031 12.6524 19.5031 13.8007 20.0033V20.0033C14.9491 20.5035 16.2539 20.5035 17.4022 20.0033V20.0033" stroke="#323232" stroke-width="1.5" stroke-linecap="round" stroke-linejoin="round"/>
<path d="M4.99709 10.9996L5.80805 7.75569C5.91939 7.31034 6.31955 6.99792 6.77861 6.99792H13.7647C14.5225 6.99792 15.2153 7.4261 15.5543 8.10395L17.0021 10.9996" stroke="#323232" stroke-width="1.5" stroke-linecap="round" stroke-linejoin="round"/>
<path d="M3.919 16.7111L3.01601 12.1963C2.95722 11.9023 3.03329 11.5976 3.22331 11.3658C3.41333 11.134 3.69727 10.9996 3.997 10.9996H20.0018C20.3622 10.9996 20.6948 11.1935 20.8724 11.5071C21.0499 11.8207 21.0451 12.2057 20.8596 12.5147L18.3442 16.7071" stroke="#323232" stroke-width="1.5" stroke-linecap="round" stroke-linejoin="round"/>
</svg>
