<svg width="24" height="24" viewBox="0 0 24 24" fill="none" xmlns="http://www.w3.org/2000/svg">
<path d="M14.2029 16.0017H13.4326" stroke="#323232" stroke-width="1.5" stroke-linecap="round" stroke-linejoin="round"/>
<path d="M9.80308 16.0017H10.5734" stroke="#323232" stroke-width="1.5" stroke-linecap="round" stroke-linejoin="round"/>
<path d="M17.0081 13.7187H6.99791" stroke="#323232" stroke-width="1.5" stroke-linecap="round" stroke-linejoin="round"/>
<path d="M7.99834 21.0037L9.06878 18.8629" stroke="#323232" stroke-width="1.5" stroke-linecap="round" stroke-linejoin="round"/>
<path d="M16.0017 21.0037L14.9312 18.8629" stroke="#323232" stroke-width="1.5" stroke-linecap="round" stroke-linejoin="round"/>
<path fill-rule="evenodd" clip-rule="evenodd" d="M14.9992 7.99833H9.00175C7.89629 7.99833 7.00092 8.8937 7.00092 9.99916V16.0017C7.00092 17.6594 8.34448 19.0029 10.0022 19.0029H14.0038C15.6625 19.0029 17.0061 17.6584 17.0051 15.9997L17.0011 9.99816C17.0001 8.8937 16.1037 7.99833 14.9992 7.99833Z" stroke="#323232" stroke-width="1.5" stroke-linecap="round" stroke-linejoin="round"/>
<path d="M20.4085 15.9296C22.2983 12.3391 21.7471 7.80225 18.7278 4.78199C15.0123 1.06644 8.98874 1.06644 5.2732 4.78199C2.25394 7.80125 1.70271 12.3391 3.5925 15.9296" stroke="#323232" stroke-width="1.5" stroke-linecap="round" stroke-linejoin="round"/>
</svg>
