<svg width="24" height="24" viewBox="0 0 24 24" fill="none" xmlns="http://www.w3.org/2000/svg">
<path d="M17.5023 21.0038L15.4314 17.8975" stroke="#323232" stroke-width="1.5" stroke-linecap="round" stroke-linejoin="round"/>
<path d="M8.56857 17.8975L6.49771 21.0038" stroke="#323232" stroke-width="1.5" stroke-linecap="round" stroke-linejoin="round"/>
<path fill-rule="evenodd" clip-rule="evenodd" d="M14.5721 18.0025H9.42793C7.53314 18.0025 5.9975 16.4669 5.9975 14.5721V8.56957C5.9975 7.14898 7.14898 5.9975 8.56957 5.9975H15.4294C16.851 5.9975 18.0025 7.14898 18.0025 8.56957V14.5721C18.0025 16.4669 16.4669 18.0025 14.5721 18.0025Z" stroke="#323232" stroke-width="1.5" stroke-linecap="round" stroke-linejoin="round"/>
<path d="M18.0025 12.071H6.14056" stroke="#323232" stroke-width="1.5" stroke-linecap="round" stroke-linejoin="round"/>
<path d="M14.0008 21.0038H9.99916" stroke="#323232" stroke-width="1.5" stroke-linecap="round" stroke-linejoin="round"/>
<path d="M21.0037 21.0037V7.99833C21.0037 5.23618 18.7638 2.99625 16.0017 2.99625H7.99833C5.23618 2.99625 2.99625 5.23618 2.99625 7.99833V21.0037" stroke="#323232" stroke-width="1.5" stroke-linecap="round" stroke-linejoin="round"/>
<path d="M14.8012 14.501C14.6921 14.501 14.6031 14.5901 14.6041 14.6991C14.6041 14.8082 14.6931 14.8972 14.8022 14.8972C14.9112 14.8972 15.0012 14.8092 15.0012 14.6991C15.0012 14.5901 14.9122 14.501 14.8012 14.501" stroke="#323232" stroke-width="1.5" stroke-linecap="round" stroke-linejoin="round"/>
<path d="M9.19583 14.501C9.08679 14.501 8.99775 14.5901 8.99875 14.6991C8.99875 14.8082 9.08779 14.8972 9.19683 14.8972C9.30588 14.8972 9.39492 14.8082 9.39492 14.6991C9.39592 14.5901 9.30688 14.501 9.19583 14.501" stroke="#323232" stroke-width="1.5" stroke-linecap="round" stroke-linejoin="round"/>
</svg>
