<svg width="24" height="24" viewBox="0 0 24 24" fill="none" xmlns="http://www.w3.org/2000/svg">
<path d="M6.99792 18.0025H19.1453C19.9739 18.0025 20.7617 17.6429 21.3046 17.017C21.8475 16.391 22.0921 15.5602 21.9749 14.7399L21.3799 10.5751C21.1687 9.09659 19.9024 7.99833 18.4088 7.99833H6.99792" stroke="#323232" stroke-width="1.5" stroke-linecap="round" stroke-linejoin="round"/>
<path d="M1.99583 21.0037H22.0042" stroke="#323232" stroke-width="1.5" stroke-linecap="round" stroke-linejoin="round"/>
<path d="M21.4406 10.9996H16.5019C16.2256 10.9996 16.0017 11.2235 16.0017 11.4998V13.5006C16.0017 13.7769 16.2256 14.0008 16.5019 14.0008H21.8693" stroke="#323232" stroke-width="1.5" stroke-linecap="round" stroke-linejoin="round"/>
<path d="M6.99792 10.9996H12.5001C12.7764 10.9996 13.0004 11.2235 13.0004 11.4998V13.5006C13.0004 13.7769 12.7764 14.0008 12.5001 14.0008H6.99792" stroke="#323232" stroke-width="1.5" stroke-linecap="round" stroke-linejoin="round"/>
<path d="M10.9997 7.99833V7.49812C10.9997 5.56432 9.43202 3.99667 7.49822 3.99667V3.99667C5.56441 3.99667 3.99676 5.56432 3.99676 7.49812V21.0037" stroke="#323232" stroke-width="1.5" stroke-linecap="round" stroke-linejoin="round"/>
<path d="M7.4982 3.99667H1.99583" stroke="#323232" stroke-width="1.5" stroke-linecap="round" stroke-linejoin="round"/>
</svg>
