<svg width="24" height="24" viewBox="0 0 24 24" fill="none" xmlns="http://www.w3.org/2000/svg">
<path d="M20.0033 10.9996L18.1446 11.9" stroke="#323232" stroke-width="1.5" stroke-linecap="round" stroke-linejoin="round"/>
<path d="M5.86444 11.9L3.99666 10.9996" stroke="#323232" stroke-width="1.5" stroke-linecap="round" stroke-linejoin="round"/>
<path d="M18.1435 11.9L17.3882 8.28845C17.1701 7.24502 16.2498 6.49771 15.1843 6.49771H8.9097C7.86427 6.49771 6.95589 7.21801 6.71779 8.23643L5.86143 11.9" stroke="#323232" stroke-width="1.5" stroke-linecap="round" stroke-linejoin="round"/>
<path d="M14.452 6.49771L14.1029 4.82601C14.0018 4.34281 13.5757 3.99667 13.0814 3.99667H10.9636C10.4794 3.99667 10.0592 4.3298 9.94914 4.801L9.55298 6.49771" stroke="#323232" stroke-width="1.5" stroke-linecap="round" stroke-linejoin="round"/>
<path d="M7.99832 18.2806V20.0033C7.99832 20.5556 7.55014 21.0037 6.99791 21.0037H4.99707C4.44484 21.0037 3.99666 20.5556 3.99666 20.0033V17.6003" stroke="#323232" stroke-width="1.5" stroke-linecap="round" stroke-linejoin="round"/>
<path d="M20.0033 17.6003V20.0033C20.0033 20.5556 19.5551 21.0037 19.0029 21.0037H17.0021C16.4498 21.0037 16.0017 20.5556 16.0017 20.0033V18.2806" stroke="#323232" stroke-width="1.5" stroke-linecap="round" stroke-linejoin="round"/>
<path fill-rule="evenodd" clip-rule="evenodd" d="M20.5035 16.2798V14.6011C20.5035 13.1095 19.294 11.9 17.8024 11.9H6.19758C4.70596 11.9 3.49646 13.1095 3.49646 14.6011V16.2798C3.49646 17.3852 4.39183 18.2806 5.49729 18.2806H18.5027C19.6082 18.2806 20.5035 17.3842 20.5035 16.2798Z" stroke="#323232" stroke-width="1.5" stroke-linecap="round" stroke-linejoin="round"/>
<path d="M6.33063 14.8622H7.27602" stroke="#323232" stroke-width="1.5" stroke-linecap="round" stroke-linejoin="round"/>
<path d="M16.724 14.8622H17.6694" stroke="#323232" stroke-width="1.5" stroke-linecap="round" stroke-linejoin="round"/>
</svg>
