<svg width="24" height="24" viewBox="0 0 24 24" fill="none" xmlns="http://www.w3.org/2000/svg">
<path d="M21.9913 14.0008H2.00872" stroke="#323232" stroke-width="1.5" stroke-linecap="round" stroke-linejoin="round"/>
<path d="M17.0021 7.99834V14.0008" stroke="#323232" stroke-width="1.5" stroke-linecap="round" stroke-linejoin="round"/>
<path d="M6.99792 7.99834V14.0008" stroke="#323232" stroke-width="1.5" stroke-linecap="round" stroke-linejoin="round"/>
<path fill-rule="evenodd" clip-rule="evenodd" d="M5.11998 7.99834C4.25877 7.99834 3.49417 8.54942 3.22182 9.36645L2.20119 12.4284C1.86557 13.4352 1.94366 14.5341 2.41828 15.4834L3.12482 16.8965C3.46375 17.5743 4.15658 18.0025 4.91445 18.0025H19.0856C19.8434 18.0025 20.5362 17.5743 20.8752 16.8965L21.5817 15.4834C22.0563 14.5341 22.1344 13.4352 21.7988 12.4284L20.7782 9.36645C20.5058 8.54942 19.7412 7.99834 18.88 7.99834H5.11998Z" stroke="#323232" stroke-width="1.5" stroke-linecap="round" stroke-linejoin="round"/>
<path d="M12 7.99834V14.0008" stroke="#323232" stroke-width="1.5" stroke-linecap="round" stroke-linejoin="round"/>
<path d="M22.0042 21.0037H1.99583" stroke="#323232" stroke-width="1.5" stroke-linecap="round" stroke-linejoin="round"/>
<path d="M10.48 7.99834L8.97912 6.12226C8.68682 5.75688 8.68682 5.23771 8.97912 4.87234L10.1796 3.37171C10.3695 3.1344 10.6569 2.99625 10.9608 2.99625H12.8003C13.1042 2.99625 13.3917 3.1344 13.5815 3.37171L14.782 4.87234C15.0743 5.23771 15.0743 5.75688 14.782 6.12226L13.2812 7.99834" stroke="#323232" stroke-width="1.5" stroke-linecap="round" stroke-linejoin="round"/>
</svg>
