<svg width="24" height="24" viewBox="0 0 24 24" fill="none" xmlns="http://www.w3.org/2000/svg">
<path d="M22.0042 21.0037H1.99583" stroke="#323232" stroke-width="1.5" stroke-linecap="round" stroke-linejoin="round"/>
<path d="M21.9913 14.0008H2.00871" stroke="#323232" stroke-width="1.5" stroke-linecap="round" stroke-linejoin="round"/>
<path d="M3.99667 7.99834V14.0008" stroke="#323232" stroke-width="1.5" stroke-linecap="round" stroke-linejoin="round"/>
<path d="M1.99583 18.0025H19.0856C19.8434 18.0025 20.5362 17.5743 20.8752 16.8965L21.5817 15.4834C22.0563 14.5341 22.1344 13.4352 21.7988 12.4284V12.4284C20.9169 9.78281 18.4412 7.99834 15.6525 7.99834H1.99583" stroke="#323232" stroke-width="1.5" stroke-linecap="round" stroke-linejoin="round"/>
<path d="M14.0008 7.99834V14.0008" stroke="#323232" stroke-width="1.5" stroke-linecap="round" stroke-linejoin="round"/>
<path d="M8.71803 7.99834L7.21714 6.12226C6.92483 5.75688 6.92483 5.23771 7.21714 4.87234L8.41764 3.37171C8.60749 3.1344 8.89492 2.99625 9.19883 2.99625H10.7995C11.1034 2.99625 11.3908 3.1344 11.5807 3.37171L12.7812 4.87234C13.0735 5.23771 13.0735 5.75688 12.7812 6.12226L11.2803 7.99834" stroke="#323232" stroke-width="1.5" stroke-linecap="round" stroke-linejoin="round"/>
</svg>
