<svg width="24" height="24" viewBox="0 0 24 24" fill="none" xmlns="http://www.w3.org/2000/svg">
<path d="M1.99583 18.0025H18.7116C19.7372 18.0025 20.7042 17.5243 21.3267 16.7092C21.9493 15.8942 22.1562 14.8354 21.8863 13.8459V13.8459C20.7837 9.80282 17.1114 6.99792 12.9206 6.99792H1.99583" stroke="#323232" stroke-width="1.5" stroke-linecap="round" stroke-linejoin="round"/>
<path d="M1.99583 21.0037H22.0042" stroke="#323232" stroke-width="1.5" stroke-linecap="round" stroke-linejoin="round"/>
<path d="M19.759 9.99917H17.0786C16.5791 9.99917 16.1075 10.2293 15.8002 10.6229C15.4928 11.0166 15.3839 11.5299 15.5051 12.0145V12.0145C15.7969 13.1819 16.8458 14.0008 18.0491 14.0008H21.9231" stroke="#323232" stroke-width="1.5" stroke-linecap="round" stroke-linejoin="round"/>
<path d="M1.99583 9.99917H9.99917C11.1042 9.99917 12 10.895 12 12V12C12 13.105 11.1042 14.0008 9.99917 14.0008H1.99583" stroke="#323232" stroke-width="1.5" stroke-linecap="round" stroke-linejoin="round"/>
<path d="M7.99833 14.0008V9.99917" stroke="#323232" stroke-width="1.5" stroke-linecap="round" stroke-linejoin="round"/>
<path d="M3.99667 14.0008V9.99917" stroke="#323232" stroke-width="1.5" stroke-linecap="round" stroke-linejoin="round"/>
</svg>
