<svg width="24" height="24" viewBox="0 0 24 24" fill="none" xmlns="http://www.w3.org/2000/svg">
<path fill-rule="evenodd" clip-rule="evenodd" d="M19.0029 14.43V8.99875C19.0029 6.78883 17.2112 4.99708 15.0013 4.99708H8.99875C6.78883 4.99708 4.99708 6.78883 4.99708 8.99875V14.43C4.99708 16.5839 6.15156 17.5723 8.02134 18.6408L9.02176 19.212C10.8675 20.2664 13.1325 20.2664 14.9782 19.212L15.9787 18.6408C17.8484 17.5723 19.0029 16.5839 19.0029 14.43Z" stroke="#323232" stroke-width="1.5" stroke-linecap="round" stroke-linejoin="round"/>
<path d="M8.99875 1.99583H15.0013" stroke="#323232" stroke-width="1.5" stroke-linecap="round" stroke-linejoin="round"/>
<path d="M10.4994 4.99708V1.99583" stroke="#323232" stroke-width="1.5" stroke-linecap="round" stroke-linejoin="round"/>
<path d="M13.5006 4.99708V1.99583" stroke="#323232" stroke-width="1.5" stroke-linecap="round" stroke-linejoin="round"/>
<path d="M4.99708 10.9996H19.0029" stroke="#323232" stroke-width="1.5" stroke-linecap="round" stroke-linejoin="round"/>
<path d="M8.02134 14.43L9.02176 15.0013" stroke="#323232" stroke-width="1.5" stroke-linecap="round" stroke-linejoin="round"/>
<path d="M15.9787 14.43L14.9782 15.0013" stroke="#323232" stroke-width="1.5" stroke-linecap="round" stroke-linejoin="round"/>
<path d="M18.0025 21.0038L16.2988 18.4487" stroke="#323232" stroke-width="1.5" stroke-linecap="round" stroke-linejoin="round"/>
<path d="M5.9975 21.0038L7.70121 18.4487" stroke="#323232" stroke-width="1.5" stroke-linecap="round" stroke-linejoin="round"/>
</svg>
