<svg width="24" height="24" viewBox="0 0 24 24" fill="none" xmlns="http://www.w3.org/2000/svg">
<path d="M7.99833 1.99583H16.0017" stroke="#323232" stroke-width="1.5" stroke-linecap="round" stroke-linejoin="round"/>
<path d="M18.0025 22.0042L15.9236 18.8859" stroke="#323232" stroke-width="1.5" stroke-linecap="round" stroke-linejoin="round"/>
<path d="M8.07636 18.8859L5.9975 22.0042" stroke="#323232" stroke-width="1.5" stroke-linecap="round" stroke-linejoin="round"/>
<path d="M12 4.99708V1.99583" stroke="#323232" stroke-width="1.5" stroke-linecap="round" stroke-linejoin="round"/>
<path fill-rule="evenodd" clip-rule="evenodd" d="M15.0012 19.0029H8.99875C6.78883 19.0029 4.99708 17.2112 4.99708 15.0012V7.99833C4.99708 6.34064 6.34064 4.99708 7.99833 4.99708H16.0017C17.6594 4.99708 19.0029 6.34064 19.0029 7.99833V15.0012C19.0029 17.2112 17.2112 19.0029 15.0012 19.0029Z" stroke="#323232" stroke-width="1.5" stroke-linecap="round" stroke-linejoin="round"/>
<path d="M14.0008 22.0042H9.99916" stroke="#323232" stroke-width="1.5" stroke-linecap="round" stroke-linejoin="round"/>
<path d="M19.0029 12H4.99708" stroke="#323232" stroke-width="1.5" stroke-linecap="round" stroke-linejoin="round"/>
<path d="M15.6245 15.0012C15.4174 15.0012 15.2494 15.1693 15.2514 15.3764C15.2514 15.5835 15.4194 15.7516 15.6265 15.7516C15.8336 15.7516 16.0017 15.5835 16.0017 15.3764C16.0017 15.1693 15.8336 15.0012 15.6245 15.0012" stroke="#323232" stroke-width="1.5" stroke-linecap="round" stroke-linejoin="round"/>
<path d="M8.37149 15.0012C8.1644 15.0012 7.99633 15.1693 7.99833 15.3764C7.99833 15.5835 8.1664 15.7516 8.37348 15.7516C8.58058 15.7516 8.74865 15.5835 8.74865 15.3764C8.74865 15.1693 8.58058 15.0012 8.37149 15.0012" stroke="#323232" stroke-width="1.5" stroke-linecap="round" stroke-linejoin="round"/>
</svg>
