<svg width="24" height="24" viewBox="0 0 24 24" fill="none" xmlns="http://www.w3.org/2000/svg">
<path fill-rule="evenodd" clip-rule="evenodd" d="M15.0013 20.0033H8.99875C6.78883 20.0033 4.99709 18.2116 4.99709 16.0017V8.99875C4.99709 7.34106 6.34065 5.9975 7.99834 5.9975H16.0017C17.6594 5.9975 19.0029 7.34106 19.0029 8.99875V16.0017C19.0029 18.2116 17.2112 20.0033 15.0013 20.0033Z" stroke="#323232" stroke-width="1.5" stroke-linecap="round" stroke-linejoin="round"/>
<path d="M7.9213 16.0017H8.99875" stroke="#323232" stroke-width="1.5" stroke-linecap="round" stroke-linejoin="round"/>
<path d="M16.0017 16.0017H14.9242" stroke="#323232" stroke-width="1.5" stroke-linecap="round" stroke-linejoin="round"/>
<path d="M6.99793 2.99625C7.6382 2.35598 8.50756 1.99583 9.41294 1.99583H14.5871C15.4925 1.99583 16.3618 2.35598 17.0021 2.99625" stroke="#323232" stroke-width="1.5" stroke-linecap="round" stroke-linejoin="round"/>
<path d="M10.9996 5.9975L9.99917 1.99583" stroke="#323232" stroke-width="1.5" stroke-linecap="round" stroke-linejoin="round"/>
<path d="M13.0004 5.9975L14.0008 1.99583" stroke="#323232" stroke-width="1.5" stroke-linecap="round" stroke-linejoin="round"/>
<path d="M18.0025 22.0042L16.4759 19.7142" stroke="#323232" stroke-width="1.5" stroke-linecap="round" stroke-linejoin="round"/>
<path d="M7.52414 19.7142L5.99751 22.0042" stroke="#323232" stroke-width="1.5" stroke-linecap="round" stroke-linejoin="round"/>
<path d="M19.0029 13.0004H4.99709" stroke="#323232" stroke-width="1.5" stroke-linecap="round" stroke-linejoin="round"/>
</svg>
