<svg width="24" height="24" viewBox="0 0 24 24" fill="none" xmlns="http://www.w3.org/2000/svg">
<path d="M16.0017 18.5027H5.99765" stroke="#323232" stroke-width="1.5" stroke-linecap="round" stroke-linejoin="round"/>
<path d="M15.0012 12V5.99751" stroke="#323232" stroke-width="1.5" stroke-linecap="round" stroke-linejoin="round"/>
<path d="M17.4983 17.002C18.1053 17.002 18.6525 17.3676 18.8848 17.9283C19.1171 18.4891 18.9887 19.1345 18.5596 19.5637C18.1304 19.9929 17.485 20.1213 16.9242 19.8891C16.3635 19.6568 15.9978 19.1097 15.9978 18.5027V18.5026C15.9973 17.6743 16.6684 17.0025 17.4966 17.002H17.4983" stroke="#323232" stroke-width="1.5" stroke-linecap="round" stroke-linejoin="round"/>
<path d="M4.49694 17.002C5.10389 17.002 5.6511 17.3676 5.88339 17.9283C6.11569 18.4891 5.98733 19.1345 5.55818 19.5637C5.12902 19.9929 4.48358 20.1213 3.92282 19.8891C3.36206 19.6568 2.9964 19.1097 2.9964 18.5027V18.5026C2.99592 17.6743 3.66695 17.0025 4.4952 17.002H4.49694" stroke="#323232" stroke-width="1.5" stroke-linecap="round" stroke-linejoin="round"/>
<path d="M9.99916 2.99625L13.0004 5.9975" stroke="#323232" stroke-width="1.5" stroke-linecap="round" stroke-linejoin="round"/>
<path d="M5.9975 2.99625L8.99875 5.9975" stroke="#323232" stroke-width="1.5" stroke-linecap="round" stroke-linejoin="round"/>
<path d="M16.0017 5.9975H4.99707" stroke="#323232" stroke-width="1.5" stroke-linecap="round" stroke-linejoin="round"/>
<path d="M18.9989 18.5027H20.5035C21.3323 18.5027 22.0042 17.8309 22.0042 17.0021V8.99876C22.0042 7.34121 20.6605 5.99751 19.0029 5.99751H2.99625" stroke="#323232" stroke-width="1.5" stroke-linecap="round" stroke-linejoin="round"/>
<path d="M6.99792 5.99751V12" stroke="#323232" stroke-width="1.5" stroke-linecap="round" stroke-linejoin="round"/>
<path d="M2.99625 12H15.0012L16.416 13.4148C16.7913 13.79 17.3002 14.0008 17.8309 14.0008H22.0042" stroke="#323232" stroke-width="1.5" stroke-linecap="round" stroke-linejoin="round"/>
</svg>
