<svg width="24" height="24" viewBox="0 0 24 24" fill="none" xmlns="http://www.w3.org/2000/svg">
<path fill-rule="evenodd" clip-rule="evenodd" d="M17.5023 19.0029H6.49771C5.39224 19.0029 4.49687 18.1075 4.49687 17.0021V5.9975C4.49687 4.89204 5.39224 3.99667 6.49771 3.99667H17.5023C18.6077 3.99667 19.5031 4.89204 19.5031 5.9975V17.0021C19.5031 18.1075 18.6077 19.0029 17.5023 19.0029Z" stroke="#323232" stroke-width="1.5" stroke-linecap="round" stroke-linejoin="round"/>
<path d="M7.49812 16.0017H8.49854" stroke="#323232" stroke-width="1.5" stroke-linecap="round" stroke-linejoin="round"/>
<path d="M15.5015 16.0017H16.5019" stroke="#323232" stroke-width="1.5" stroke-linecap="round" stroke-linejoin="round"/>
<path d="M4.49687 13.0004H19.5031" stroke="#323232" stroke-width="1.5" stroke-linecap="round" stroke-linejoin="round"/>
<path d="M8.23443 19.0029V20.5035C8.23443 21.0558 7.78625 21.504 7.23402 21.504H6.2336C5.68137 21.504 5.23318 21.0558 5.23318 20.5035V18.5467" stroke="#323232" stroke-width="1.5" stroke-linecap="round" stroke-linejoin="round"/>
<path d="M18.7668 18.5467V20.5035C18.7668 21.0558 18.3186 21.504 17.7664 21.504H16.766C16.2138 21.504 15.7656 21.0558 15.7656 20.5035V19.0029" stroke="#323232" stroke-width="1.5" stroke-linecap="round" stroke-linejoin="round"/>
<path d="M22.0042 12V8.99875C22.0042 8.44652 21.556 7.99833 21.0038 7.99833H2.99625C2.44402 7.99833 1.99583 8.44652 1.99583 8.99875V12" stroke="#323232" stroke-width="1.5" stroke-linecap="round" stroke-linejoin="round"/>
<path d="M8.99875 3.99666L10.4994 0.995415" stroke="#323232" stroke-width="1.5" stroke-linecap="round" stroke-linejoin="round"/>
<path d="M14.0008 3.99666L15.5015 0.995415" stroke="#323232" stroke-width="1.5" stroke-linecap="round" stroke-linejoin="round"/>
</svg>
