<svg width="24" height="24" viewBox="0 0 24 24" fill="none" xmlns="http://www.w3.org/2000/svg">
<path d="M19.103 9.99917H21.0038C21.556 9.99917 22.0042 10.4474 22.0042 10.9996V12C22.0042 12.5522 21.556 13.0004 21.0038 13.0004H19.5031" stroke="#323232" stroke-width="1.5" stroke-linecap="round" stroke-linejoin="round"/>
<path d="M4.89704 9.99917H2.99625C2.44402 9.99917 1.99583 10.4474 1.99583 10.9996V12C1.99583 12.5522 2.44402 13.0004 2.99625 13.0004H4.49688" stroke="#323232" stroke-width="1.5" stroke-linecap="round" stroke-linejoin="round"/>
<path d="M7.59016 15.7516H8.59058" stroke="#323232" stroke-width="1.5" stroke-linecap="round" stroke-linejoin="round"/>
<path d="M15.5935 15.7516H16.5939" stroke="#323232" stroke-width="1.5" stroke-linecap="round" stroke-linejoin="round"/>
<path d="M4.99709 9.49896V4.99708C4.99709 3.89162 5.89246 2.99625 6.99792 2.99625H17.0021C18.1075 2.99625 19.0029 3.89162 19.0029 4.99708V9.49896" stroke="#323232" stroke-width="1.5" stroke-linecap="round" stroke-linejoin="round"/>
<path d="M19.4631 12H4.5369" stroke="#323232" stroke-width="1.5" stroke-linecap="round" stroke-linejoin="round"/>
<path fill-rule="evenodd" clip-rule="evenodd" d="M4.49687 12.7923V17.0021C4.49687 18.1075 5.39224 19.0029 6.49771 19.0029H17.5023C18.6077 19.0029 19.5031 18.1075 19.5031 17.0021V12.7923C19.5031 12.2651 19.4511 11.7399 19.3481 11.2227L18.8248 8.60659C18.6378 7.6712 17.8164 6.99792 16.862 6.99792H7.13797C6.18357 6.99792 5.36223 7.6712 5.17515 8.60659L4.65194 11.2227C4.54889 11.7399 4.49687 12.2651 4.49687 12.7923Z" stroke="#323232" stroke-width="1.5" stroke-linecap="round" stroke-linejoin="round"/>
<path d="M8.23443 19.0029V20.5035C8.23443 21.0558 7.78625 21.504 7.23402 21.504H6.2336C5.68137 21.504 5.23318 21.0558 5.23318 20.5035V18.5467" stroke="#323232" stroke-width="1.5" stroke-linecap="round" stroke-linejoin="round"/>
<path d="M18.7668 18.5467V20.5035C18.7668 21.0558 18.3186 21.504 17.7664 21.504H16.766C16.2138 21.504 15.7656 21.0558 15.7656 20.5035V19.0029" stroke="#323232" stroke-width="1.5" stroke-linecap="round" stroke-linejoin="round"/>
</svg>
