<svg width="24" height="24" viewBox="0 0 24 24" fill="none" xmlns="http://www.w3.org/2000/svg">
<path d="M16.0017 18.4227H8.34047" stroke="#323232" stroke-width="1.5" stroke-linecap="round" stroke-linejoin="round"/>
<path d="M22.0042 13.0004H18.5027C18.2265 13.0004 18.0025 12.7765 18.0025 12.5002V8.99875H21.5038" stroke="#323232" stroke-width="1.5" stroke-linecap="round" stroke-linejoin="round"/>
<path d="M18.5593 17.4416C18.9885 17.8707 19.117 18.5162 18.8847 19.0769C18.6525 19.6377 18.1053 20.0033 17.4984 20.0033C16.8914 20.0033 16.3442 19.6378 16.1119 19.077C15.8796 18.5163 16.008 17.8709 16.4371 17.4417L16.4372 17.4415C17.0232 16.8555 17.9733 16.8555 18.5593 17.4415V17.4415" stroke="#323232" stroke-width="1.5" stroke-linecap="round" stroke-linejoin="round"/>
<path d="M1.99583 3.99667H9.99917" stroke="#323232" stroke-width="1.5" stroke-linecap="round" stroke-linejoin="round"/>
<path d="M9.99916 3.99667C10.5517 3.99667 10.9996 4.44457 10.9996 4.99708" stroke="#323232" stroke-width="1.5" stroke-linecap="round" stroke-linejoin="round"/>
<path d="M10.9996 4.99708V10.9996" stroke="#323232" stroke-width="1.5" stroke-linecap="round" stroke-linejoin="round"/>
<path d="M4.55751 17.4416C4.98671 17.8707 5.11512 18.5162 4.88288 19.0769C4.65064 19.6377 4.10347 20.0033 3.49653 20.0033C2.88958 20.0033 2.34238 19.6378 2.11009 19.077C1.87779 18.5163 2.00615 17.8709 2.43531 17.4417L2.43561 17.4414C2.717 17.16 3.09865 17.0019 3.49659 17.0019C3.89453 17.002 4.27615 17.1601 4.55749 17.4415V17.4415" stroke="#323232" stroke-width="1.5" stroke-linecap="round" stroke-linejoin="round"/>
<path d="M7.73282 17.4416C8.16201 17.8707 8.29043 18.5162 8.05819 19.0769C7.82595 19.6377 7.27878 20.0033 6.67184 20.0033C6.06489 20.0033 5.51769 19.6378 5.2854 19.077C5.0531 18.5163 5.18146 17.8709 5.61061 17.4417L5.61091 17.4414C5.8923 17.16 6.27396 17.0019 6.6719 17.0019C7.06983 17.002 7.45146 17.1601 7.7328 17.4415V17.4415" stroke="#323232" stroke-width="1.5" stroke-linecap="round" stroke-linejoin="round"/>
<path d="M18.998 18.5027H21.0037C21.5563 18.5027 22.0042 18.0548 22.0042 17.5023V10.4716C22.0042 10.1609 21.9318 9.85449 21.7928 9.5766L20.5557 7.1033C20.2168 6.42558 19.524 5.9975 18.7663 5.9975H14.0008" stroke="#323232" stroke-width="1.5" stroke-linecap="round" stroke-linejoin="round"/>
<path d="M1.99583 14.0008H14.0008V3.99667" stroke="#323232" stroke-width="1.5" stroke-linecap="round" stroke-linejoin="round"/>
</svg>
