<svg width="24" height="24" viewBox="0 0 24 24" fill="none" xmlns="http://www.w3.org/2000/svg">
<path fill-rule="evenodd" clip-rule="evenodd" d="M6.49771 5.9975H17.5023C18.6077 5.9975 19.5031 6.89287 19.5031 7.99833V8.99875C19.5031 10.1042 18.6077 10.9996 17.5023 10.9996H6.49771C5.39224 10.9996 4.49687 10.1042 4.49687 8.99875V7.99833C4.49687 6.89287 5.39224 5.9975 6.49771 5.9975Z" stroke="#323232" stroke-width="1.5" stroke-linecap="round" stroke-linejoin="round"/>
<path fill-rule="evenodd" clip-rule="evenodd" d="M4.49687 17.0021C4.49687 18.1075 5.39224 19.0029 6.49771 19.0029H17.5023C18.6077 19.0029 19.5031 18.1075 19.5031 17.0021V3.99666C19.5031 2.8912 18.6077 1.99583 17.5023 1.99583H6.49771C5.39224 1.99583 4.49687 2.8912 4.49687 3.99666V17.0021Z" stroke="#323232" stroke-width="1.5" stroke-linecap="round" stroke-linejoin="round"/>
<path d="M16.886 15.0012H16.0017" stroke="#323232" stroke-width="1.5" stroke-linecap="round" stroke-linejoin="round"/>
<path d="M7.99834 15.0012H6.79584" stroke="#323232" stroke-width="1.5" stroke-linecap="round" stroke-linejoin="round"/>
<path d="M13.5006 16.3288H10.4994" stroke="#323232" stroke-width="1.5" stroke-linecap="round" stroke-linejoin="round"/>
<path d="M13.5006 14.0779H10.4994" stroke="#323232" stroke-width="1.5" stroke-linecap="round" stroke-linejoin="round"/>
<path d="M19.267 17.9365V20.5035C19.267 21.0558 18.8188 21.504 18.2666 21.504H16.2658C15.7136 21.504 15.2654 21.0558 15.2654 20.5035V19.0029" stroke="#323232" stroke-width="1.5" stroke-linecap="round" stroke-linejoin="round"/>
<path d="M8.73464 19.0029V20.5035C8.73464 21.0558 8.28645 21.504 7.73422 21.504H5.73339C5.18116 21.504 4.73297 21.0558 4.73297 20.5035V17.9365" stroke="#323232" stroke-width="1.5" stroke-linecap="round" stroke-linejoin="round"/>
<path d="M4.49688 6.99791H2.99625C2.44402 6.99791 1.99583 7.4461 1.99583 7.99833V11.0616" stroke="#323232" stroke-width="1.5" stroke-linecap="round" stroke-linejoin="round"/>
<path d="M19.5031 6.99791H21.0038C21.556 6.99791 22.0042 7.4461 22.0042 7.99833V11.0616" stroke="#323232" stroke-width="1.5" stroke-linecap="round" stroke-linejoin="round"/>
</svg>
