<svg width="24" height="24" viewBox="0 0 24 24" fill="none" xmlns="http://www.w3.org/2000/svg">
<path d="M16.0017 18.5027H8.1684" stroke="#323232" stroke-width="1.5" stroke-linecap="round" stroke-linejoin="round"/>
<path d="M18.9989 18.5027H21.0038C21.5563 18.5027 22.0042 18.0548 22.0042 17.5023V11.3851C22.0042 11.1307 21.9556 10.8786 21.8611 10.6424L20.5058 7.25508C20.2019 6.49553 19.4663 5.9975 18.6482 5.9975H15.0013" stroke="#323232" stroke-width="1.5" stroke-linecap="round" stroke-linejoin="round"/>
<path d="M22.0042 13.0004H18.5027C18.2265 13.0004 18.0025 12.7765 18.0025 12.5002V8.99875H21.2038" stroke="#323232" stroke-width="1.5" stroke-linecap="round" stroke-linejoin="round"/>
<path d="M18.5593 17.4457C18.9885 17.8748 19.117 18.5203 18.8847 19.081C18.6525 19.6418 18.1053 20.0074 17.4984 20.0075C16.8914 20.0075 16.3442 19.6419 16.1119 19.0812C15.8796 18.5204 16.008 17.875 16.4371 17.4458L16.4372 17.4457C16.7187 17.1643 17.1003 17.0062 17.4983 17.0062C17.8963 17.0062 18.2779 17.1643 18.5593 17.4457V17.4457" stroke="#323232" stroke-width="1.5" stroke-linecap="round" stroke-linejoin="round"/>
<path d="M7.55476 17.4457C7.98396 17.8748 8.11238 18.5203 7.88014 19.081C7.6479 19.6418 7.10073 20.0074 6.49379 20.0075C5.88684 20.0075 5.33964 19.6419 5.10734 19.0812C4.87505 18.5204 5.0034 17.875 5.43255 17.4458L5.43285 17.4455C5.71424 17.1641 6.0959 17.006 6.49384 17.0061C6.89178 17.0061 7.2734 17.1642 7.55474 17.4457V17.4457" stroke="#323232" stroke-width="1.5" stroke-linecap="round" stroke-linejoin="round"/>
<path d="M4.99708 18.5027H2.99625C2.44374 18.5027 1.99583 18.0548 1.99583 17.5023V4.99708C1.99583 4.44457 2.44374 3.99667 2.99625 3.99667H14.0008C14.5533 3.99667 15.0013 4.44457 15.0013 4.99708V14.0008" stroke="#323232" stroke-width="1.5" stroke-linecap="round" stroke-linejoin="round"/>
<path d="M15.0013 14.0008H1.99583" stroke="#323232" stroke-width="1.5" stroke-linecap="round" stroke-linejoin="round"/>
</svg>
