<svg width="20" height="20" viewBox="0 0 20 20" fill="none" xmlns="http://www.w3.org/2000/svg">
<path d="M10 8.125C9.91667 8.125 9.84167 8.10833 9.75833 8.075C9.525 7.98333 9.375 7.75 9.375 7.5V1.66667C9.375 1.325 9.65833 1.04167 10 1.04167C10.3417 1.04167 10.625 1.325 10.625 1.66667V5.99167L11.225 5.39167C11.4667 5.15 11.8667 5.15 12.1083 5.39167C12.35 5.63333 12.35 6.03333 12.1083 6.275L10.4417 7.94167C10.325 8.05833 10.1667 8.125 10 8.125Z" fill="white"/>
<path d="M9.99997 8.125C9.84164 8.125 9.68331 8.06667 9.55831 7.94167L7.89164 6.275C7.64997 6.03333 7.64997 5.63333 7.89164 5.39167C8.1333 5.15 8.5333 5.15 8.77497 5.39167L10.4416 7.05833C10.6833 7.3 10.6833 7.7 10.4416 7.94167C10.3166 8.06667 10.1583 8.125 9.99997 8.125Z" fill="white"/>
<path d="M11.4667 14.7917H8.52502C7.65002 14.7917 6.86669 14.3083 6.47502 13.525L5.50002 11.575C5.46669 11.5 5.39169 11.4583 5.31669 11.4583H1.65002C1.30836 11.4583 1.02502 11.175 1.02502 10.8333C1.02502 10.4917 1.30836 10.2083 1.65002 10.2083H5.32502C5.88336 10.2083 6.38336 10.5167 6.63336 11.0167L7.60836 12.9667C7.78336 13.325 8.14169 13.5417 8.54169 13.5417H11.4834C11.8834 13.5417 12.2417 13.325 12.4167 12.9667L13.3917 11.0167C13.6417 10.5167 14.1417 10.2083 14.7 10.2083H18.3334C18.675 10.2083 18.9584 10.4917 18.9584 10.8333C18.9584 11.175 18.675 11.4583 18.3334 11.4583H14.7C14.6167 11.4583 14.55 11.5 14.5167 11.575L13.5417 13.525C13.125 14.3083 12.3417 14.7917 11.4667 14.7917Z" fill="white"/>
<path d="M12.5 18.9583H7.50002C2.97502 18.9583 1.04169 17.025 1.04169 12.5V9.16667C1.04169 5.25833 2.49169 3.3 5.74169 2.825C6.09169 2.775 6.40002 3.00833 6.45002 3.35C6.50002 3.69167 6.26669 4.00833 5.92502 4.05833C3.30835 4.44167 2.29169 5.875 2.29169 9.16667V12.5C2.29169 16.3417 3.65835 17.7083 7.50002 17.7083H12.5C16.3417 17.7083 17.7084 16.3417 17.7084 12.5V9.16667C17.7084 5.875 16.6917 4.44167 14.075 4.05833C13.7334 4.00833 13.5 3.69167 13.55 3.35C13.6 3.00833 13.9167 2.775 14.2584 2.825C17.5084 3.3 18.9584 5.25833 18.9584 9.16667V12.5C18.9584 17.025 17.025 18.9583 12.5 18.9583Z" fill="white"/>
</svg>
