<svg width="20" height="20" viewBox="0 0 20 20" fill="none" xmlns="http://www.w3.org/2000/svg">
<path d="M9.48331 15.75C9.20831 15.75 8.93331 15.6833 8.68331 15.5417C8.17498 15.2583 7.86665 14.7417 7.86665 14.1583V11.5917C7.86665 11.4333 7.74165 11.125 7.61665 10.9667L5.80831 9.06666C5.46665 8.725 5.20831 8.125 5.20831 7.66666V6.55833C5.20831 5.63333 5.90831 4.91666 6.79998 4.91666H13.1916C14.0666 4.91666 14.7833 5.63333 14.7833 6.50833V7.575C14.7833 8.15833 14.45 8.8 14.1166 9.13333L12.0083 11C11.875 11.1167 11.7333 11.4083 11.7333 11.65V13.7333C11.7333 14.2583 11.4166 14.8417 10.9916 15.0917L10.3333 15.5167C10.075 15.675 9.78331 15.75 9.48331 15.75ZM6.79998 6.16666C6.59998 6.16666 6.45831 6.33333 6.45831 6.55833V7.66666C6.45831 7.775 6.57498 8.05833 6.70831 8.19166L8.55831 10.1417C8.84165 10.5 9.11665 11.075 9.11665 11.5917V14.1583C9.11665 14.325 9.22498 14.4167 9.29165 14.45C9.38331 14.5 9.53331 14.5333 9.66665 14.45L10.3333 14.0167C10.4 13.9667 10.4833 13.8 10.4833 13.7167V11.6333C10.4833 11.0417 10.775 10.3833 11.1916 10.0417L13.2583 8.20833C13.3666 8.1 13.5333 7.76666 13.5333 7.55833V6.50833C13.5333 6.325 13.375 6.16666 13.1916 6.16666H6.79998Z" fill="#BCBCDA"/>
<path d="M12.5 18.9583H7.50002C2.97502 18.9583 1.04169 17.025 1.04169 12.5V7.5C1.04169 2.975 2.97502 1.04166 7.50002 1.04166H12.5C17.025 1.04166 18.9584 2.975 18.9584 7.5V12.5C18.9584 17.025 17.025 18.9583 12.5 18.9583ZM7.50002 2.29166C3.65835 2.29166 2.29169 3.65833 2.29169 7.5V12.5C2.29169 16.3417 3.65835 17.7083 7.50002 17.7083H12.5C16.3417 17.7083 17.7084 16.3417 17.7084 12.5V7.5C17.7084 3.65833 16.3417 2.29166 12.5 2.29166H7.50002Z" fill="#BCBCDA"/>
</svg>
