<svg width="116" height="32" viewBox="0 0 116 32" fill="none" xmlns="http://www.w3.org/2000/svg">
<path fillRule="evenodd" clipRule="evenodd" d="M66.9206 10.9399H72.4457V26.9801H76.7123V10.9399H85.5227V26.9801H89.7821V10.9399H94.8095L96.6654 7.05421H66.9206V10.9399Z" fill="white"/>
<path fillRule="evenodd" clipRule="evenodd" d="M49.307 24.719C50.6083 21.9602 53.0544 19.8527 56.0125 19.0917L58.3876 13.2522L60.7413 19.0332C63.7919 19.7357 66.3162 21.8358 67.6531 24.6604H67.6744L60.2435 7.05421H56.7165L49.307 24.719Z" fill="white"/>
<path fillRule="evenodd" clipRule="evenodd" d="M105.831 23.0725C102.575 23.0725 99.9365 20.3577 99.9365 17.0062C99.9365 13.6547 102.575 10.9399 105.831 10.9399C109.088 10.9399 111.726 13.6547 111.726 17.0062C111.726 20.3577 109.088 23.0725 105.831 23.0725ZM116 17.0062C116 11.2253 111.449 6.54199 105.831 6.54199C100.214 6.54199 95.6628 11.2253 95.6628 17.0062C95.6628 22.7871 100.214 27.4704 105.831 27.4704C111.449 27.4704 116 22.7871 116 17.0062Z" fill="white"/>
<path fillRule="evenodd" clipRule="evenodd" d="M0 32L3.29945 30.5219C10.005 27.99 16.2199 27.1119 23.4375 27.4997C29.4391 27.8217 33.9047 28.9632 39.4441 31.4366L40.4894 32L31.2595 17.394C24.9735 17.4892 17.6066 19.3113 12.5152 21.8066C9.22994 23.4091 7.48777 24.697 4.87096 26.8411C3.74033 27.7704 2.26126 29.2779 1.27996 30.3609C1.00975 30.6609 0.106663 31.7585 0 32Z" fill="white"/>
<path fillRule="evenodd" clipRule="evenodd" d="M5.33279 23.5774L5.97277 23.131C6.1861 22.9408 6.32832 22.8164 6.53453 22.6334C7.85005 21.4992 8.50425 21.0016 10.0331 19.9186C14.577 16.6915 20.6994 14.3279 26.1962 13.3327C26.6726 13.2449 28.045 13.0912 28.4503 12.9595L20.2586 0L5.33279 23.5774Z" fill="white"/>
<path fillRule="evenodd" clipRule="evenodd" d="M36.3153 17.0867H38.4841V18.5136H39.8636V14.2401H38.4841V11.3863H37.0904V15.6597H35.4122L36.3153 17.0867ZM41.2503 14.2328V15.6597H42.5516V14.2328H41.2503ZM39.8636 12.8059H42.5516V11.3863H39.8636V12.8059ZM32.9376 9.95931H42.5516V0.0219727H32.9376V9.95931ZM41.2503 8.53238H34.3242V1.405H41.2503V8.53238ZM35.7038 7.10544H39.8636V2.83194H35.7038V7.10544ZM34.3171 11.3789H32.9376V11.7375L34.3171 13.9328V11.3789ZM31.551 9.54953V7.10544H30.1644V4.25156H31.551V0.0219727H30.1644V2.83194H28.7777V0.0219727H25.5281L26.3956 1.405H27.3911V2.97098L28.2018 4.25156H28.7777V5.16627L31.551 9.54953ZM41.2503 21.3602H39.0174L39.9205 22.7871H41.2503V21.3602ZM38.4841 20.5113V18.5136H37.2184L38.4841 20.5113ZM42.5516 24.2141H41.2503V24.8946L41.7196 25.641L42.5516 26.8704V24.2141ZM41.2503 24.2141H42.5516V22.7871H41.2503V24.2141ZM41.2503 17.1379V18.5648H42.5516V17.1379H41.2503Z" fill="white"/>
<path fillRule="evenodd" clipRule="evenodd" d="M58.3661 18.7697C54.3769 18.8283 50.9494 21.2284 49.321 24.697L48.9868 25.4873L48.3611 26.9801H53.0614C53.9289 24.7043 55.9768 23.2262 58.3661 23.1676C58.4159 23.1676 58.7572 23.1676 58.8141 23.1749C61.1322 23.2993 63.102 24.7555 63.9482 26.9801H68.6556L68.0227 25.4873L67.6956 24.697C66.1099 21.3163 62.8033 18.9453 58.9492 18.777C58.8496 18.7697 58.4657 18.7697 58.3661 18.7697Z" fill="white"/>
</svg>
