<svg width="20" height="20" viewBox="0 0 20 20" fill="none" xmlns="http://www.w3.org/2000/svg">
<path d="M4.16431 16.6694L7.76955 13.0642" stroke="#797FA3" stroke-width="1.5" stroke-linecap="round" stroke-linejoin="round"/>
<path fill-rule="evenodd" clip-rule="evenodd" d="M9.44166 7.92086L11.4223 5.94021C11.6355 5.73094 11.7417 5.43586 11.7106 5.13872L11.5665 3.87595C11.543 3.66864 11.6533 3.46915 11.8413 3.37885C12.0294 3.28854 12.2541 3.32721 12.4011 3.4752L17.3585 8.43259C17.5065 8.57966 17.5452 8.8043 17.4549 8.99239C17.3646 9.18047 17.1651 9.29077 16.9578 9.26724L15.695 9.12308C15.3979 9.09202 15.1028 9.19817 14.8935 9.41139L12.9129 11.392C12.728 11.5754 12.6242 11.8251 12.6246 12.0854V15.5537C12.6239 15.9503 12.3848 16.3075 12.0184 16.4592C11.6519 16.6109 11.2303 16.5272 10.9495 16.2471L4.59097 9.88277C4.31087 9.60204 4.22719 9.18036 4.37887 8.81394C4.53054 8.44753 4.88777 8.20836 5.28434 8.20773H8.75264C9.01128 8.20733 9.25916 8.10413 9.44166 7.92086Z" stroke="#797FA3" stroke-width="1.5" stroke-linecap="round" stroke-linejoin="round"/>
</svg>
