<svg width="20" height="20" viewBox="0 0 20 20" fill="none" xmlns="http://www.w3.org/2000/svg">
<path d="M9.99992 16.6667V12.5" stroke="#797FA3" stroke-width="1.5" stroke-linecap="round" stroke-linejoin="round"/>
<path fill-rule="evenodd" clip-rule="evenodd" d="M5.825 12.5H14.175C14.6308 12.5 15 12.1308 15 11.675V11.675C15 11.4083 14.8717 11.1583 14.6542 11.0033L12.0833 9.16666V6.66666L14.2125 5.24749C14.4442 5.09249 14.5833 4.8325 14.5833 4.55416V4.16666C14.5833 3.70666 14.21 3.33333 13.75 3.33333H6.25C5.79 3.33333 5.41667 3.70666 5.41667 4.16666V4.55416C5.41667 4.8325 5.55583 5.09333 5.7875 5.24749L7.91667 6.66666V9.16666L5.34583 11.0033C5.12833 11.1583 5 11.4083 5 11.675V11.675C5 12.1308 5.36917 12.5 5.825 12.5V12.5Z" stroke="#797FA3" stroke-width="1.5" stroke-linecap="round" stroke-linejoin="round"/>
</svg>
