<svg width="20" height="20" viewBox="0 0 20 20" fill="none" xmlns="http://www.w3.org/2000/svg">
<path d="M16.1833 9.79166H13.3333C12.9916 9.79166 12.7083 9.50833 12.7083 9.16666V3.34166C12.7083 2.725 12.95 2.15 13.3833 1.71667C13.8166 1.28333 14.3916 1.04166 15.0083 1.04166H15.0166C16.0583 1.05 17.0416 1.45833 17.7916 2.2C18.5416 2.95833 18.95 3.95833 18.95 5V7.01666C18.9583 8.675 17.8416 9.79166 16.1833 9.79166ZM13.9583 8.54166H16.1833C17.15 8.54166 17.7083 7.98333 17.7083 7.01666V5C17.7083 4.28333 17.425 3.6 16.9166 3.08333C16.4083 2.58333 15.725 2.3 15.0166 2.29166C15.0166 2.29166 15.0166 2.29166 15.0083 2.29166C14.7333 2.29166 14.4666 2.4 14.2666 2.6C14.0666 2.8 13.9583 3.05833 13.9583 3.34166V8.54166Z" fill="#BCBCDA"/>
<path d="M7.50002 19.4417C7.10835 19.4417 6.74169 19.2917 6.46669 19.0083L5.08335 17.6167C5.00835 17.5417 4.89169 17.5333 4.80835 17.6L3.37502 18.6667C2.93335 19 2.35002 19.0583 1.85002 18.8083C1.35002 18.5583 1.04169 18.0583 1.04169 17.5V5C1.04169 2.48333 2.48335 1.04166 5.00002 1.04166H15C15.3417 1.04166 15.625 1.325 15.625 1.66666C15.625 2.00833 15.3417 2.29166 15 2.29166C14.425 2.29166 13.9584 2.75833 13.9584 3.33333V17.5C13.9584 18.0583 13.65 18.5583 13.15 18.8083C12.65 19.0583 12.0667 19.0083 11.625 18.675L10.2 17.6083C10.1167 17.5417 10 17.5583 9.93335 17.625L8.53335 19.025C8.25835 19.2917 7.89169 19.4417 7.50002 19.4417ZM4.92502 16.3083C5.30835 16.3083 5.68335 16.45 5.96669 16.7417L7.35002 18.1333C7.40002 18.1833 7.46669 18.1917 7.50002 18.1917C7.53335 18.1917 7.60002 18.1833 7.65002 18.1333L9.05002 16.7333C9.56669 16.2167 10.3834 16.1667 10.9584 16.6083L12.375 17.6667C12.4667 17.7333 12.55 17.7083 12.5917 17.6833C12.6334 17.6583 12.7084 17.6083 12.7084 17.5V3.33333C12.7084 2.95833 12.8 2.6 12.9584 2.29166H5.00002C3.15002 2.29166 2.29169 3.15 2.29169 5V17.5C2.29169 17.6167 2.36669 17.6667 2.40835 17.6917C2.45835 17.7167 2.54169 17.7333 2.62502 17.6667L4.05002 16.6C4.30835 16.4083 4.61669 16.3083 4.92502 16.3083Z" fill="#BCBCDA"/>
<path d="M10 11.4667H7.5C7.15833 11.4667 6.875 11.1833 6.875 10.8417C6.875 10.5 7.15833 10.2167 7.5 10.2167H10C10.3417 10.2167 10.625 10.5 10.625 10.8417C10.625 11.1833 10.3417 11.4667 10 11.4667Z" fill="#BCBCDA"/>
<path d="M10 8.13334H7.5C7.15833 8.13334 6.875 7.85001 6.875 7.50834C6.875 7.16667 7.15833 6.88334 7.5 6.88334H10C10.3417 6.88334 10.625 7.16667 10.625 7.50834C10.625 7.85001 10.3417 8.13334 10 8.13334Z" fill="#BCBCDA"/>
<path d="M4.97518 8.34168C4.51685 8.34168 4.14185 7.96668 4.14185 7.50834C4.14185 7.05001 4.51685 6.67501 4.97518 6.67501C5.43351 6.67501 5.80851 7.05001 5.80851 7.50834C5.80851 7.96668 5.43351 8.34168 4.97518 8.34168Z" fill="#BCBCDA"/>
<path d="M4.97518 11.675C4.51685 11.675 4.14185 11.3 4.14185 10.8417C4.14185 10.3833 4.51685 10.0083 4.97518 10.0083C5.43351 10.0083 5.80851 10.3833 5.80851 10.8417C5.80851 11.3 5.43351 11.675 4.97518 11.675Z" fill="#BCBCDA"/>
</svg>
